<?xml version="1.0" standalone="no"?>
<!DOCTYPE svg PUBLIC "-//W3C//DTD SVG 1.1//EN" "http://www.w3.org/Graphics/SVG/1.1/DTD/svg11.dtd" >
<svg xmlns="http://www.w3.org/2000/svg">
<metadata>Generated by IcoMoon</metadata>
<defs>
<font id="devolutions-icons" horiz-adv-x="1024">
<font-face units-per-em="1024" ascent="960" descent="-64" />
<missing-glyph horiz-adv-x="1024" />
<glyph unicode="&#x20;" horiz-adv-x="512" d="" />
<glyph unicode="&#xe600;" glyph-name="Buy" d="M865.422 282.311l115.2 430.933h-529.067v-76.8h428.089l-32.711-118.044h-294.4v-75.378h274.489l-31.289-116.622h-376.889l-217.6 493.511h-157.867v-75.378h106.667l204.8-469.333c-35.556-24.178-59.733-64-59.733-109.511 0-72.533 59.733-132.267 135.111-132.267 73.956 0 135.111 58.311 135.111 132.267 0 31.289-11.378 61.156-29.867 83.911h160.711c-18.489-22.756-29.867-51.2-29.867-83.911 0-72.533 59.733-132.267 135.111-132.267 73.956 0 135.111 58.311 135.111 132.267 0 51.2-28.444 95.289-71.111 116.622zM431.644 111.644c-31.289 0-56.889 24.178-56.889 55.467 0 29.867 25.6 55.467 56.889 55.467s56.889-24.178 56.889-55.467c0-31.289-25.6-55.467-56.889-55.467zM801.422 111.644c-31.289 0-56.889 24.178-56.889 55.467 0 29.867 25.6 55.467 56.889 55.467s56.889-24.178 56.889-55.467c0-31.289-25.6-55.467-56.889-55.467z" />
<glyph unicode="&#xe601;" glyph-name="Download" d="M511.998 856.89c-27.022 0-52.622-2.844-78.222-7.111v-354.133h-149.333l227.556-230.4 227.556 228.978h-149.333v274.489c156.444-36.978 273.067-176.356 273.067-342.756 0-193.422-157.867-351.289-351.289-351.289s-351.289 157.867-351.289 351.289c0 136.533 79.644 261.689 203.378 318.578l-32.711 69.689c-152.178-68.267-250.311-220.444-250.311-388.267 0-236.089 193.422-429.511 430.933-429.511 236.089 0 430.933 193.422 430.933 430.933 0 234.667-194.844 429.511-430.933 429.511z" />
<glyph unicode="&#xe602;" glyph-name="Info" d="M511.999 854.044c-236.089 0-428.089-192-428.089-428.089 0-166.4 98.133-318.578 247.467-388.267l32.711 69.689c-123.733 58.311-203.378 183.467-203.378 318.578 0 193.422 156.444 349.867 349.867 349.867s349.867-156.444 349.867-349.867c0-166.4-115.2-305.778-271.644-341.333v285.867h-156.444v-364.089c27.022-4.267 51.2-7.111 78.222-7.111 234.667 0 428.089 192 428.089 428.089 1.422 234.667-190.578 426.667-426.667 426.667zM610.132 512.71c0-54.198-43.936-98.133-98.133-98.133s-98.133 43.936-98.133 98.133c0 54.198 43.936 98.133 98.133 98.133s98.133-43.936 98.133-98.133z" />
<glyph unicode="&#xe603;" glyph-name="Search" d="M369.778 283.023c-75.378 0-146.489 29.867-200.533 82.489-110.933 110.933-110.933 291.556 0 402.489 52.622 54.044 125.156 85.333 200.533 85.333s146.489-29.867 200.533-82.489c110.933-110.933 110.933-291.556 0-402.489-52.622-55.467-123.733-85.333-200.533-85.333zM369.778 768c-54.044 0-105.244-19.911-142.222-59.733-78.222-78.222-78.222-206.222 0-284.444 38.4-38.4 88.178-59.733 142.222-59.733s105.244 19.911 142.222 59.733c78.222 78.222 78.222 206.222 0 284.444-38.4 39.822-88.178 59.733-142.222 59.733zM635.733 339.911c22.756 22.756 61.156 22.756 83.911 0l200.533-200.533c22.756-22.756 22.756-61.156 0-83.911l-38.4-38.4c-22.756-22.756-61.156-22.756-83.911 0l-200.533 200.533c-22.756 22.756-22.756 61.156 0 83.911l38.4 38.4z" />
<glyph unicode="&#xe604;" glyph-name="Arrows" d="M640.712 700.445h-230.4l310.044-274.489-310.044-273.067h230.4l308.622 273.067zM303.645 700.445h-228.978l308.622-274.489-308.622-273.067h228.978l310.044 273.067z" />
<glyph unicode="&#xe605;" glyph-name="Server" d="M326.401 504.889h211.911v-79.644h-211.911v79.644zM326.401 311.467h211.911v-79.644h-211.911v79.644zM720.356 853.334h-574.578v-81.067h493.511v-615.822h81.067v612.978l76.8-22.756v-605.867l-58.311-35.556-18.489-11.378-22.756-14.222h-470.756v539.022h312.889v81.067h-393.956v-699.733h574.578l157.867 95.289v711.111z" />
<glyph unicode="&#xe606;" glyph-name="Enterprise" d="M849.778 90.312v762.311h-674.133v-762.311h-95.289v-89.6h184.889v763.733h494.933v-763.733h183.467v89.6zM343.467 697.601h125.156v-125.156h-125.156v125.156zM556.8 697.601h125.156v-125.156h-125.156v125.156zM343.467 471.468h125.156v-125.156h-125.156v125.156zM556.8 471.468h125.156v-125.156h-125.156v125.156zM343.467 243.912h125.156v-125.156h-125.156v125.156zM556.8 243.912h125.156v-125.156h-125.156v125.156z" />
<glyph unicode="&#xe607;" glyph-name="Delete-Bold" d="M718.222 814.222h-78.222v39.822h-257.422v-39.822h-69.689c-59.733 0-108.089-48.356-108.089-108.089h614.4c-1.422 59.733-41.244 108.089-100.978 108.089zM812.089 662.044v-618.667c0-22.756-18.489-44.089-44.089-44.089h-504.889c-22.756 0-44.089 18.489-44.089 44.089v618.667h593.067zM694.044 545.422h-41.244v-423.822h41.244v423.822zM537.6 545.422h-41.244v-423.822h41.244v423.822zM379.733 545.422h-41.244v-423.822h41.244v423.822z" />
<glyph unicode="&#xe608;" glyph-name="Internet" d="M512 855.467c-236.089 0-429.511-192-429.511-428.089 0-234.667 192-428.089 429.511-429.511 1.422 0 2.844 0 4.267 0 115.2 0 220.444 45.511 302.933 128l28.444 28.444-45.511 45.511c-79.644 79.644-183.467 119.467-288.711 119.467v0c-25.6 0-49.778-2.844-73.956-7.111-12.8 21.333-35.556 36.978-61.156 36.978-1.422 0-2.844 0-4.267 0-4.267 19.911-7.111 41.244-8.533 61.156h247.467c8.533-29.867 35.556-52.622 68.267-52.622s59.733 21.333 68.267 52.622h115.2v-24.178h75.378v38.4c1.422 238.933-190.578 430.933-428.089 430.933zM618.666 603.733c-34.133-9.956-69.689-15.644-105.244-15.644-19.911 0-41.244 1.422-61.156 4.267 0 18.489-7.111 35.556-19.911 46.933 12.8 17.067 25.6 34.133 41.244 48.356 34.133 34.133 73.956 61.156 118.044 78.222 62.578-14.222 119.467-45.511 164.978-89.6-31.289-27.022-65.422-48.356-102.4-64-19.911 36.978-44.089 69.689-73.956 100.978l-27.022-22.756c27.022-25.6 46.933-55.467 65.422-86.756zM381.155 522.667c27.022 0 48.356 14.222 61.156 35.556 22.756-4.267 45.511-5.689 69.689-5.689 42.667 0 82.489 5.689 120.889 18.489 9.956-24.178 18.489-49.778 21.333-76.8-21.333-7.111-36.978-25.6-44.089-48.356h-246.044c1.422 25.6 4.267 52.622 12.8 76.8 1.422 0 2.844 0 4.267 0zM692.622 497.067c-4.267 28.444-12.8 58.311-24.178 85.333 41.244 17.067 78.222 39.822 112.356 69.689 46.933-56.889 78.222-128 82.489-207.644h-115.2c-7.111 27.022-28.444 48.356-55.467 52.622zM527.644 778.667c-28.444-17.067-55.467-36.978-79.644-61.156-17.067-17.067-32.711-36.978-45.511-55.467-5.689 2.844-12.8 4.267-19.911 4.267-21.333 0-41.244-9.956-54.044-25.6-19.911 12.8-39.822 25.6-58.311 41.244 62.578 61.156 149.333 98.133 243.2 98.133 2.844-1.422 9.956-1.422 14.222-1.422zM244.622 653.511c19.911-18.489 44.089-35.556 68.267-48.356-1.422-4.267-1.422-7.111-1.422-12.8 0-24.178 12.8-45.511 31.289-58.311-8.533-28.444-12.8-58.311-14.222-88.178h-166.4c2.844 79.644 34.133 150.756 82.489 207.644zM513.422 76.089c-99.556 1.422-189.156 42.667-251.733 108.089 1.422 1.422 1.422 1.422 2.844 2.844 0 0 1.422 1.422 2.844 1.422 4.267 4.267 8.533 7.111 12.8 11.378v0c14.222 12.8 29.867 22.756 45.511 32.711 12.8-14.222 31.289-22.756 52.622-22.756 4.267 0 9.956 0 14.222 1.422 15.644-25.6 35.556-49.778 56.889-71.111 24.178-24.178 51.2-45.511 79.644-61.156-5.689-2.844-11.378-2.844-15.644-2.844zM765.155 182.756l-2.844-2.844c-49.778-51.2-106.667-83.911-170.667-96.711-45.511 18.489-85.333 45.511-119.467 79.644-19.911 19.911-35.556 39.822-49.778 61.156 14.222 12.8 22.756 29.867 22.756 51.2 112.356 21.333 231.822-11.378 320-92.444zM337.066 337.778c-19.911-12.8-31.289-34.133-31.289-59.733 0-4.267 0-9.956 1.422-14.222-18.489-11.378-36.978-22.756-52.622-36.978v0c-4.267-4.267-9.956-7.111-12.8-12.8-1.422-1.422-1.422-1.422-2.844-2.844s-1.422-1.422-2.844-2.844c-44.089 55.467-71.111 123.733-75.378 199.111h167.822c0-21.333 4.267-45.511 8.533-69.689z" />
<glyph unicode="&#xe609;" glyph-name="Language" d="M814.933 729.6c-166.4 167.822-438.044 167.822-605.867 0s-166.4-438.044 0-607.289c82.489-82.489 189.156-125.156 301.511-125.156 34.133 0 68.267 4.267 100.978 11.378l39.822 9.956-18.489 76.8-38.4-8.533c-119.467-28.444-243.2 5.689-329.956 92.444-1.422 1.422-2.844 4.267-4.267 4.267 32.711 29.867 68.267 52.622 106.667 68.267 19.911-41.244 45.511-79.644 79.644-113.778l25.6 25.6c-29.867 29.867-52.622 64-71.111 100.978 72.533 22.756 150.756 22.756 223.289 0-18.489-35.556-41.244-69.689-71.111-100.978l25.6-25.6c34.133 34.133 59.733 72.533 79.644 113.778 38.4-15.644 73.956-39.822 106.667-68.267-1.422-1.422-2.844-4.267-4.267-4.267l-28.444-28.444 55.467-55.467 28.444 28.444c164.978 167.822 164.978 438.044-1.422 605.867zM861.867 446.578h-163.556c-2.844 46.933-11.378 92.444-29.867 136.533 39.822 17.067 78.222 39.822 113.778 69.689 48.356-59.733 76.8-132.267 79.644-206.222zM661.333 446.578h-298.667c2.844 42.667 11.378 83.911 28.444 125.156 39.822-11.378 79.644-18.489 120.889-18.489s81.067 5.689 120.889 18.489c17.067-41.244 25.6-83.911 28.444-125.156zM755.2 679.823c-31.289-28.444-66.844-48.356-103.822-64-19.911 35.556-44.089 69.689-73.956 100.978l-25.6-25.6c27.022-27.022 48.356-55.467 64-86.756-68.267-19.911-140.8-19.911-210.489 0 17.067 31.289 38.4 59.733 64 86.756l-22.756 24.178c-29.867-29.867-54.044-64-73.956-100.978-36.978 14.222-72.533 35.556-103.822 64 135.111 132.267 351.289 132.267 486.4 1.422zM244.622 652.8c34.133-29.867 72.533-52.622 113.778-69.689-18.489-44.089-28.444-91.022-29.867-136.533h-166.4c4.267 73.956 31.289 146.489 82.489 206.222zM236.089 210.489c-45.511 58.311-69.689 128-73.956 197.689h164.978c2.844-42.667 9.956-83.911 25.6-123.733-41.244-15.644-81.067-41.244-116.622-73.956zM513.422 320c-42.667 0-83.911-7.111-125.156-19.911-12.8 35.556-19.911 73.956-22.756 110.933h297.244c-2.844-36.978-9.956-75.378-22.756-110.933-42.667 11.378-85.333 19.911-126.578 19.911zM787.911 210.489c-35.556 32.711-75.378 56.889-116.622 75.378 14.222 39.822 22.756 82.489 25.6 123.733h164.978c-2.844-71.111-27.022-139.378-73.956-199.111z" />
<glyph unicode="&#xe60a;" glyph-name="Price" d="M777.956 866.127h-275.911l-416.711-416.711 54.044-54.044 395.378 393.956h211.911l116.622-115.2v-211.911l-368.356-366.933-230.4 230.4-55.467-55.467 285.867-283.022 443.733 442.311v275.911zM752.356 620.082c0-33.775-27.38-61.156-61.156-61.156s-61.156 27.38-61.156 61.156c0 33.775 27.38 61.156 61.156 61.156s61.156-27.38 61.156-61.156zM426.667 365.505c-12.8 12.8-25.6 32.711-32.711 54.044l-31.289-24.178c4.267-15.644 15.644-32.711 25.6-46.933l-25.6-25.6 25.6-25.6 27.022 27.022c31.289-19.911 65.422-19.911 91.022 4.267 25.6 25.6 21.333 54.044 1.422 91.022-11.378 21.333-12.8 31.289-4.267 39.822 7.111 7.111 21.333 4.267 32.711-7.111 15.644-15.644 21.333-29.867 25.6-45.511l31.289 24.178c-2.844 12.8-11.378 29.867-24.178 44.089l28.444 28.444-25.6 25.6-27.022-28.444c-28.444 15.644-56.889 15.644-79.644-7.111-24.178-24.178-21.333-52.622-2.844-88.178 11.378-21.333 14.222-34.133 4.267-45.511s-25.6-7.111-39.822 5.689z" />
<glyph unicode="&#xe60b;" glyph-name="Check" d="M409.6 130.127l-325.689 365.511 123.733 113.778 216.178-240.356 391.111 354.133h125.156v-169.244h-61.156z" />
<glyph unicode="&#xe60c;" glyph-name="Activate-Launch" d="M939.379 817.067l-2.844 32.711-32.711 2.844c-275.911 15.644-433.778-133.689-477.867-184.889l-36.978 2.844c-109.511 21.333-182.044-61.156-206.222-108.089l-115.2-199.111 193.422-12.8-42.667-42.667 27.022-27.022 55.467 55.467c5.689-22.756 18.489-44.089 32.711-65.422l-9.956-9.956 27.022-27.022 44.089 45.511 19.911 18.489-14.222 14.222c-19.911 19.911-29.867 45.511-29.867 72.533l1.422 51.2-46.933-14.222-128 7.111 56.889 95.289 1.422 4.267c1.422 4.267 41.244 86.756 123.733 69.689l82.489-5.689 12.8 17.067c1.422 1.422 130.844 170.667 391.111 170.667h1.422c0-105.244-25.6-200.533-79.644-284.444-45.511-71.111-91.022-106.667-91.022-106.667l-17.067-12.8 5.689-78.222 1.422-5.689c18.489-83.911-65.422-122.311-69.689-123.733l-98.133-58.311-8.533 140.8-75.378-4.267 1.422-24.178-2.844-2.844-61.156-59.733 27.022-27.022 39.822 39.822 12.8-187.733 199.111 118.044c48.356 22.756 130.844 95.289 108.089 206.222l-2.844 35.556c49.778 38.4 200.533 196.267 183.467 472.178zM763.024 588.090c0-51.056-41.389-92.444-92.444-92.444s-92.444 41.389-92.444 92.444c0 51.056 41.389 92.444 92.444 92.444s92.444-41.389 92.444-92.444zM363.822 94l-27.153 27.153 17.096 17.096 27.153-27.153-17.096-17.096zM200.772 290.731l27.145-27.16-17.101-17.091-27.145 27.16 17.101 17.091zM303.385 190.841l-27.153 27.153 32.181 32.181 27.153-27.153-32.181-32.181zM258.228 145.8l-27.153 27.153 32.181 32.181 27.153-27.153-32.181-32.181zM230.038 115.884l-27.153 27.153 17.096 17.096 27.153-27.153-17.096-17.096z" />
<glyph unicode="&#xe60d;" glyph-name="Admin" d="M937.246 328.533v196.267h-81.067c-7.111 25.6-18.489 52.622-31.289 75.378l56.889 56.889-139.378 139.378-56.889-56.889c-22.756 14.222-49.778 24.178-75.378 31.289v81.067h-196.267v-82.489c-25.6-7.111-52.622-18.489-75.378-31.289l-56.889 56.889-139.378-137.956 56.889-56.889c-14.222-22.756-24.178-49.778-31.289-75.378h-81.067v-196.267h81.067c7.111-25.6 18.489-52.622 31.289-75.378l-56.889-56.889 139.378-139.378 56.889 56.889c22.756-14.222 49.778-24.178 75.378-31.289v-81.067h196.267v81.067c25.6 7.111 52.622 18.489 75.378 31.289l56.889-56.889 139.378 139.378-56.889 56.889c14.222 22.756 24.178 49.778 31.289 75.378h81.067zM705.424 426.667c0-106.667-86.756-193.422-193.422-193.422s-193.422 86.756-193.422 193.422c0 106.667 86.756 192 193.422 192s193.422-85.333 193.422-192z" />
<glyph unicode="&#xe60e;" glyph-name="Connections" d="M897.422 509.867c22.756 0 42.667-19.911 42.667-42.667v-423.822c0-22.756-19.911-42.667-42.667-42.667h-742.4c-22.756 0-44.089 19.911-44.089 42.667l-25.6 423.822c-1.422 22.756 17.067 42.667 39.822 42.667h772.267zM897.422 558.222c0 22.756-19.911 42.667-42.667 42.667h-425.244l-2.844 19.911c-1.422 11.378-12.8 21.333-24.178 21.333h-223.289c-12.8 0-22.756-8.533-24.178-21.333l-4.267-21.333c-18.489-4.267-34.133-21.333-34.133-41.244v-1.422h780.8v1.422zM861.866 680.533c0 21.333-17.067 38.4-38.4 38.4h-386.844l-2.844 18.489c-1.422 11.378-11.378 19.911-21.333 19.911h-203.378c-11.378 0-19.911-8.533-21.333-19.911l-2.844-18.489c-17.067-4.267-31.289-19.911-31.289-38.4v-1.422h706.844v1.422zM829.155 782.933c0 19.911-15.644 35.556-35.556 35.556h-349.867l-1.422 17.067c-1.422 8.533-11.378 17.067-19.911 17.067h-184.889c-8.533 0-18.489-7.111-19.911-17.067l-2.844-18.489c-14.222-4.267-27.022-17.067-27.022-34.133v-1.422h641.422c0 0 0 1.422 0 1.422z" />
<glyph unicode="&#xe60f;" glyph-name="Dashboard" d="M819.908 487.823l-274.489-79.644c-9.956 5.689-21.333 9.956-32.711 9.956-42.667 0-73.956-38.4-62.578-83.911 4.267-14.222 12.8-27.022 25.6-35.556 44.089-28.444 93.867 0 100.978 41.244l243.2 147.911zM489.952 648.534h42.667v-115.2h-42.667v115.2zM593.479 516.312l62.715 96.63 35.789-23.228-62.715-96.63-35.789 23.228zM688.344 303.907l6.673 42.142 113.783-18.017-6.673-42.142-113.783 18.017zM332.756 587.728l35.785 23.241 62.749-96.618-35.785-23.241-62.749 96.618zM232.796 452.114l17.357 38.976 105.235-46.863-17.357-38.976-105.235 46.863zM217.16 326.382l113.783 17.994 6.665-42.142-113.783-17.994-6.665 42.142zM512.708 792.178c-244.622 0-448-200.533-448-446.578 0-105.244 38.4-206.222 103.822-284.444h116.622c-85.333 69.689-136.533 173.511-136.533 284.444 0 201.956 163.556 364.089 365.511 364.089s365.511-163.556 365.511-365.511c0-75.378-22.756-145.067-61.156-201.956h-476.444c18.489-39.822 54.044-81.067 54.044-81.067h462.222c19.911 24.178 38.4 52.622 52.622 81.067 31.289 61.156 48.356 130.844 48.356 203.378 1.422 246.044-200.533 446.578-446.578 446.578z" />
<glyph unicode="&#xe610;" glyph-name="Help" d="M937.955 426.667c0-236.089-190.578-425.244-425.244-425.244s-426.667 189.156-426.667 425.244 190.578 425.244 425.244 425.244 426.667-190.578 426.667-425.244zM508.444 248.889c-17.067 0-34.133-5.689-45.511-17.067s-18.489-28.444-18.489-45.511c0-19.911 7.111-35.556 18.489-46.933 12.8-11.378 28.444-15.644 45.511-15.644 15.644 0 31.289 5.689 44.089 17.067s18.489 28.444 18.489 46.933c0 17.067-5.689 32.711-17.067 45.511-11.378 8.533-25.6 15.644-45.511 15.644zM680.533 655.645c-15.644 22.756-38.4 42.667-65.422 55.467-28.444 12.8-59.733 19.911-96.711 19.911-39.822 0-72.533-8.533-102.4-24.178s-52.622-36.978-66.844-61.156c-15.644-24.178-22.756-49.778-22.756-73.956 0-12.8 5.689-27.022 15.644-38.4 11.378-11.378 24.178-17.067 41.244-17.067 18.489 0 44.089 8.533 55.467 46.933 8.533 24.178 17.067 42.667 29.867 55.467 9.956 11.378 28.444 17.067 51.2 17.067 19.911 0 36.978-5.689 48.356-17.067s18.489-24.178 18.489-41.244c0-8.533-1.422-15.644-5.689-22.756s-8.533-14.222-15.644-19.911c-7.111-7.111-17.067-15.644-32.711-31.289-17.067-15.644-32.711-29.867-42.667-41.244-11.378-11.378-19.911-27.022-27.022-41.244-7.111-15.644-9.956-35.556-9.956-55.467 0-18.489 5.689-34.133 15.644-44.089s22.756-14.222 38.4-14.222c29.867 0 46.933 15.644 52.622 45.511 2.844 11.378 4.267 18.489 5.689 24.178 1.422 4.267 2.844 8.533 4.267 11.378 1.422 4.267 5.689 8.533 9.956 12.8 4.267 5.689 11.378 11.378 18.489 18.489 29.867 27.022 49.778 45.511 61.156 56.889s21.333 27.022 31.289 42.667c8.533 15.644 12.8 36.978 12.8 58.311 0 28.444-7.111 55.467-22.756 78.222z" />
<glyph unicode="&#xe611;" glyph-name="My-Account" d="M623.645 687.643c0-97.398-78.957-176.356-176.356-176.356s-176.356 78.957-176.356 176.356c0 97.398 78.957 176.356 176.356 176.356s176.356-78.957 176.356-176.356zM485.689 187.021c0 100.978 82.489 186.311 186.311 186.311 2.844 0 5.689 0 8.533 0-2.844 62.578-49.778 112.356-108.089 112.356h-68.267l-56.889-162.133-56.889 160.711h-68.267c-59.733 0-109.511-52.622-109.511-118.044l-21.333-153.6v-5.689c0-21.333 22.756-36.978 49.778-36.978h32.711l12.8-139.378c2.844-24.178 22.756-41.244 45.511-41.244h217.6c18.489 0 35.556 12.8 41.244 31.289-61.156 27.022-105.244 91.022-105.244 166.4zM832.712 187.021c0-89.6-72.533-162.133-162.133-162.133s-162.133 72.533-162.133 162.133 72.533 162.133 162.133 162.133 162.133-72.533 162.133-162.133zM679.112 117.332h-7.111l24.178 83.911c1.422 7.111 0 14.222-4.267 18.489-4.267 5.689-9.956 8.533-17.067 8.533h-49.778c-12.8 0-22.756-9.956-22.756-22.756s9.956-22.756 22.756-22.756h18.489l-24.178-83.911c-1.422-7.111 0-14.222 4.267-18.489 4.267-5.689 9.956-8.533 17.067-8.533h38.4c12.8 0 22.756 9.956 22.756 22.756 1.422 12.8-8.533 22.756-22.756 22.756zM683.378 306.488c-17.067 0-31.289-14.222-31.289-32.711s12.8-31.289 31.289-31.289c17.067 0 31.289 12.8 31.289 31.289 0 17.067-12.8 32.711-31.289 32.711z" />
<glyph unicode="&#xe612;" glyph-name="Facebook" d="M432.64 649.387c0-16.64 0-120.32 0-120.32h-89.6v-89.6h89.6v-358.4h128v358.4h107.52c0 0 8.96 38.4 12.8 89.6-12.8 0-120.32 0-120.32 0s0 93.44 0 104.96c0 11.52 29.44 23.040 44.8 23.040s19.2 0 70.4 0c0 0 0 51.2 0 115.2-64 0-79.36 0-98.56 0-147.2 0-144.64-104.96-144.64-122.88z" />
<glyph unicode="&#xe613;" glyph-name="Blog" d="M876.089 558.934h-128v120.889c0 59.733-48.356 108.089-108.089 108.089h-479.289c-59.733 0-108.089-48.356-108.089-108.089v-321.422c0-59.733 48.356-108.089 108.089-108.089h72.533l-59.733-58.311 58.311-61.156 86.756 83.911c35.556 35.556 28.444 66.844 24.178 79.644-4.267 11.378-21.333 39.822-72.533 39.822h-110.933c-12.8 0-24.178 11.378-24.178 24.178v321.422c0 12.8 11.378 24.178 24.178 24.178h480.711c12.8 0 24.178-11.378 24.178-24.178v-120.889h-183.467c-49.778 0-91.022-41.244-91.022-91.022v-284.444c0-49.778 41.244-91.022 91.022-91.022h160.711v64h-160.711c-14.222 0-27.022 11.378-27.022 27.022v284.444c0 14.222 11.378 27.022 27.022 27.022h395.378c14.222 0 27.022-11.378 27.022-27.022v-284.444c0-14.222-11.378-27.022-27.022-27.022h-103.822c-41.244 0-55.467-22.756-59.733-32.711s-9.956-35.556 19.911-64l78.222-73.956 45.511 46.933-62.578 59.733h82.489c49.778 0 91.022 41.244 91.022 91.022v284.444c1.422 49.778-39.822 91.022-91.022 91.022z" />
<glyph unicode="&#xe614;" glyph-name="Google-Plus" d="M622.222 482.131h-281.6v-99.556h162.133c0-129.422-159.289-130.844-160.711-130.844-96.711 0-174.933 78.222-174.933 176.356s78.222 177.778 174.933 177.778c0 0 1.422 0 1.422 0s1.422 0 1.422 0c44.089 0 82.489-17.067 110.933-44.089l85.333 85.333c-52.622 48.356-122.311 78.222-197.689 78.222-1.422 0-2.844 0-2.844 0-1.422 0-2.844 0-2.844 0-163.556-1.422-294.4-135.111-294.4-298.667s130.844-297.244 292.978-297.244c1.422 0 2.844 0 2.844 0 1.422 0 2.844 0 2.844 0 155.022-1.422 263.111 96.711 278.756 237.511 2.844 19.911 5.689 36.978 5.689 58.311 1.422 19.911 0 28.444-4.267 56.889zM980.622 482.131h-99.556v113.778h-99.556v-113.778h-99.556v-85.333h99.556v-99.556h99.556v99.556h99.556z" />
<glyph unicode="&#xe615;" glyph-name="Linkedin" d="M396.8 103.468h140.8v243.2c0 40.96 43.52 88.32 84.48 88.32 52.48 0 69.12-39.68 69.12-98.56v-232.96h153.6v249.6c0 134.4-76.8 198.4-171.52 195.84-76.8-1.28-122.88-38.4-135.68-71.68v48.64h-140.8v-422.4zM179.2 525.868h128v-422.4h-128v422.4zM263.68 749.868c-49.92 0-81.92-37.12-81.92-79.36s32-79.36 80.64-79.36h1.28c51.2 0 81.92 38.4 81.92 79.36-1.28 42.24-32 79.36-81.92 79.36z" />
<glyph unicode="&#xe616;" glyph-name="Spiceworks" d="M621.511 598.756c27.022 152.178-115.2 210.489-164.978 219.022-24.178 4.267-25.6 2.844-51.2 17.067s-44.089 48.356-44.089 48.356c-46.933-76.8-41.244-130.844-41.244-130.844s194.844 21.333 250.311-119.467l1.422-2.844c18.489-5.689 35.556-17.067 49.778-31.289zM550.4 638.578v0c0 0-41.244 96.711-189.156 99.556-140.8 4.267-234.667-71.111-234.667-71.111s35.556-15.644 46.933-34.133c12.8-18.489 34.133-68.267 34.133-68.267s109.511 140.8 265.956 69.689c14.222 4.267 28.444 7.111 44.089 7.111 11.378 0 22.756-1.422 32.711-2.844zM453.689 627.2c-197.689 59.733-277.333-147.911-290.133-174.933-11.378-27.022-56.889-55.467-56.889-55.467 55.467-28.444 128-45.511 128-45.511 8.533 201.956 152.178 209.067 152.178 209.067v0c14.222 28.444 38.4 52.622 66.844 66.844zM371.2 496.356c0 15.644 2.844 32.711 7.111 46.933v0c0 0-126.578-18.489-125.156-196.267 0 0 110.933-25.6 190.578 22.756-42.667 25.6-72.533 72.533-72.533 126.578zM416.711 214.756c-5.689-155.022 145.067-192 194.844-193.422 24.178-1.422 25.6 1.422 52.622-9.956s49.778-41.244 49.778-41.244c35.556 82.489 22.756 135.111 22.756 135.111s-190.578-48.356-264.533 82.489l-1.422 2.844c-18.489 2.844-36.978 12.8-54.044 24.178zM493.511 186.311v0c0 0 54.044-89.6 201.956-72.533 139.378 15.644 221.867 103.822 221.867 103.822s-36.978 11.378-51.2 27.022c-14.222 15.644-42.667 62.578-42.667 62.578s-89.6-155.022-254.578-108.089c-12.8-5.689-27.022-11.378-42.667-12.8-11.378-1.422-22.756-1.422-32.711 0zM587.378 210.489c203.378-31.289 253.156 184.889 261.689 213.333s48.356 62.578 48.356 62.578c-59.733 19.911-133.689 27.022-133.689 27.022 19.911-201.956-120.889-228.978-120.889-228.978v0c-8.533-28.444-28.444-55.467-55.467-73.956zM649.956 352.711c2.844-15.644 2.844-32.711 0-48.356v0c0 0 122.311 36.978 95.289 211.911 0 0-112.356 8.533-184.889-49.778 46.933-18.489 82.489-61.156 89.6-113.778z" />
<glyph unicode="&#xe617;" glyph-name="Twitter" d="M682.24 238.504h-121.6c-75.52 0-135.68 61.44-135.68 135.68v20.48h258.56c46.080 0 83.2 37.12 83.2 83.2s-37.12 83.2-83.2 83.2h-259.84v135.68c0 46.080-37.12 83.2-83.2 83.2s-83.2-37.12-83.2-83.2v-321.28c0-166.4 135.68-302.080 302.080-302.080h121.6c46.080 0 83.2 37.12 83.2 83.2 1.28 44.8-37.12 81.92-81.92 81.92z" />
<glyph unicode="&#xe618;" glyph-name="YouTube" d="M930.133 597.334c0 0-8.533 58.311-34.133 85.333-32.711 34.133-68.267 34.133-85.333 35.556-119.467 8.533-298.667 8.533-298.667 8.533v0c0 0-179.2 0-298.667-8.533-17.067-1.422-52.622-2.844-85.333-35.556-25.6-25.6-34.133-85.333-34.133-85.333s-8.533-69.689-8.533-137.956v-64c0-69.689 8.533-137.956 8.533-137.956s8.533-58.311 34.133-85.333c32.711-34.133 75.378-32.711 93.867-36.978 69.689-7.111 290.133-8.533 290.133-8.533s179.2 0 298.667 8.533c17.067 1.422 52.622 2.844 85.333 35.556 25.6 25.6 34.133 85.333 34.133 85.333s8.533 69.689 8.533 137.956v64c0 69.689-8.533 139.378-8.533 139.378zM425.244 315.734v238.933l230.4-120.889-230.4-118.044z" />
<glyph unicode="&#xe619;" glyph-name="Forum" d="M859.022 287.289v-211.911h-44.089v-75.378h119.467v287.289zM775.111 324.267l42.667-61.156c42.667 29.867 66.844 79.644 66.844 130.844 0 28.444-7.111 54.044-19.911 78.222 0 103.822-41.244 200.533-113.778 274.489-152.178 152.178-398.222 152.178-550.4 0-146.489-147.911-150.756-386.844-9.956-539.022l-1.422-228.978 182.044 118.044c46.933-12.8 96.711-17.067 145.067-12.8v-83.911h152.178v73.956h-78.222v183.467h78.222v73.956c-17.067 17.067-28.444 38.4-28.444 62.578 0 46.933 38.4 85.333 85.333 85.333s85.333-38.4 85.333-85.333c1.422-27.022-12.8-52.622-35.556-69.689zM564.622 393.956c0-21.333 4.267-42.667 12.8-62.578h-61.156v-172.089c-46.933-5.689-95.289-1.422-139.378 12.8l-17.067 5.689-95.289-62.578v122.311l-11.378 11.378c-122.311 122.311-122.311 321.422 0 445.156 122.311 122.311 321.422 122.311 445.156 0 41.244-41.244 69.689-92.444 82.489-149.333-17.067 7.111-36.978 9.956-56.889 9.956-86.756 0-159.289-71.111-159.289-160.711z" />
<glyph unicode="&#xe61a;" glyph-name="Online-Help" d="M221.867 513.423h51.2v-19.911h-51.2v19.911zM308.622 513.423h88.178v-19.911h-88.178v19.911zM432.356 513.423h51.2v-19.911h-51.2v19.911zM221.867 418.134h51.2v-19.911h-51.2v19.911zM308.622 418.134h88.178v-19.911h-88.178v19.911zM432.356 418.134h51.2v-19.911h-51.2v19.911zM221.867 610.134h51.2v-19.911h-51.2v19.911zM308.622 610.134h88.178v-19.911h-88.178v19.911zM432.356 610.134h51.2v-19.911h-51.2v19.911zM819.2 493.511v273.067h-745.244v-531.911h338.489v-88.178h-106.667v-68.267h174.933v224.711h-338.489v395.378h608.711v-193.422c-106.667-2.844-193.422-91.022-193.422-197.689 0-4.267 0-9.956 0-15.644-21.333-25.6-39.822-61.156-41.244-62.578l-8.533-17.067 14.222-14.222c8.533-8.533 25.6-22.756 36.978-32.711v-78.222h85.333v-49.778h132.267v52.622h-79.644v49.778h-85.333v51.2l-8.533 8.533c-5.689 4.267-17.067 14.222-28.444 22.756 8.533 14.222 19.911 31.289 29.867 42.667l8.533 9.956-1.422 11.378c-1.422 7.111-1.422 14.222-1.422 19.911 0 79.644 65.422 145.067 145.067 145.067 2.844 0 7.111 0 9.956 0v-110.933c-27.022-9.956-45.511-36.978-45.511-66.844 0-12.8 2.844-22.756 8.533-32.711l-41.244-19.911c-12.8-7.111-18.489-22.756-11.378-35.556 4.267-9.956 14.222-14.222 24.178-14.222 4.267 0 8.533 1.422 11.378 2.844l64 31.289c5.689-1.422 11.378-2.844 17.067-2.844 39.822 0 72.533 32.711 72.533 72.533 0 29.867-18.489 56.889-45.511 66.844v96.711c48.356-24.178 82.489-72.533 82.489-130.844 0-45.511-19.911-86.756-56.889-115.2l-9.956-8.533v-146.489h52.622v120.889c42.667 36.978 66.844 91.022 66.844 147.911 0 88.178-56.889 162.133-135.111 187.733z" />
<glyph unicode="&#xe61b;" glyph-name="Menu" d="M128 170.667h768v85.333h-768v-85.333zM128 384h768v85.333h-768v-85.333zM128 682.667v-85.333h768v85.333h-768z" />
<glyph unicode="&#xe61c;" glyph-name="Attachment" d="M341.333-1.422c-64 0-125.156 24.178-172.089 71.111-95.289 95.289-95.289 248.889 0 344.178l389.689 389.689c34.133 34.133 78.222 52.622 126.578 52.622s93.867-18.489 126.578-52.622c34.133-34.133 52.622-78.222 52.622-126.578s-18.489-93.867-52.622-126.578l-344.178-347.022c-21.333-21.333-52.622-35.556-82.489-35.556s-61.156 11.378-82.489 35.556c-46.933 46.933-46.933 120.889 0 167.822l285.867 285.867c15.644 15.644 42.667 15.644 58.311 0s15.644-42.667 0-58.311l-287.289-287.289c-12.8-12.8-12.8-36.978 0-49.778s36.978-12.8 49.778 0l345.6 345.6c18.489 18.489 27.022 42.667 27.022 68.267s-9.956 49.778-27.022 69.689c-18.489 18.489-42.667 27.022-68.267 27.022s-49.778-9.956-68.267-27.022l-391.111-391.111c-62.578-62.578-62.578-163.556 0-226.133 31.289-28.444 69.689-46.933 113.778-46.933s82.489 15.644 112.356 46.933l402.489 402.489c15.644 15.644 42.667 15.644 58.311 0s15.644-42.667 0-58.311l-402.489-402.489c-45.511-46.933-106.667-71.111-170.667-71.111z" />
<glyph unicode="&#xe61d;" glyph-name="Description" d="M85.334 783.644h853.333v-96.711h-853.333v96.711zM85.334 372.622h853.333v-96.711h-853.333v96.711zM85.334 577.422h853.333v-96.711h-853.333v96.711zM85.334 166.399h853.333v-96.711h-853.333v96.711z" />
<glyph unicode="&#xe61e;" glyph-name="Logs" d="M108.089 618.667v149.333h813.511v-150.756h-813.511zM483.556 209.067c0 169.244 136.533 307.2 307.2 307.2 46.933 0 91.022-11.378 129.422-29.867v92.444h-812.089v-492.089h402.489c-17.067 36.978-27.022 76.8-27.022 122.311zM425.244 196.267h-246.044v21.333h244.622v-21.333zM425.244 320h-246.044v21.333h244.622v-21.333zM425.244 443.734h-246.044v21.333h244.622v-21.333zM729.6 160.711c-34.133 0-65.422 12.8-89.6 36.978s-36.978 55.467-36.978 89.6 12.8 65.422 36.978 89.6c24.178 24.178 55.467 36.978 89.6 36.978s65.422-12.8 89.6-36.978c24.178-24.178 36.978-55.467 36.978-89.6s-12.8-65.422-36.978-89.6c-22.756-24.178-54.044-36.978-89.6-36.978zM729.6 376.889c-24.178 0-46.933-9.956-62.578-25.6-17.067-17.067-25.6-39.822-25.6-62.578s9.956-46.933 25.6-62.578c17.067-17.067 39.822-25.6 62.578-25.6s46.933 9.956 62.578 25.6c17.067 17.067 25.6 39.822 25.6 62.578s-9.956 46.933-25.6 62.578c-17.067 15.644-38.4 25.6-62.578 25.6zM849.067 187.734c9.956 9.956 27.022 9.956 36.978 0l73.956-73.956c9.956-9.956 9.956-27.022 0-36.978l-17.067-17.067c-9.956-9.956-27.022-9.956-36.978 0l-73.956 73.956c-9.956 9.956-9.956 27.022 0 36.978l17.067 17.067z" />
<glyph unicode="&#xe61f;" glyph-name="Contact" d="M663.465 818.492v55.467h-76.8v-42.667c-9.956 1.422-19.911 1.422-31.289 1.422-199.111 0-361.244-162.133-361.244-361.244 0-9.956 0-21.333 1.422-32.711-39.822-45.511-73.956-113.778-76.8-118.044l-12.8-24.178 19.911-19.911c17.067-17.067 52.622-45.511 72.533-62.578v-140.8h159.289v-93.867h237.511v75.378h-159.289v93.867h-159.289v100.978l-14.222 11.378c-11.378 9.956-39.822 31.289-59.733 49.778 17.067 28.444 41.244 66.844 62.578 89.6l12.8 14.222-2.844 18.489c-1.422 14.222-2.844 27.022-2.844 39.822 0 156.444 128 284.444 284.444 284.444 9.956 0 19.911 0 31.289-1.422v-216.178c-55.467-17.067-96.711-68.267-96.711-130.844 0-27.022 7.111-49.778 21.333-71.111l-130.844-61.156c-19.911-9.956-28.444-32.711-18.489-51.2 7.111-14.222 21.333-22.756 35.556-22.756 5.689 0 11.378 1.422 17.067 4.267l162.133 78.222c15.644-5.689 32.711-9.956 48.356-9.956 73.956 0 135.111 59.733 135.111 135.111 0 61.156-41.244 113.778-96.711 130.844v196.267c103.822-42.667 176.356-143.644 176.356-261.689 0-88.178-41.244-170.667-110.933-223.289l-15.644-12.8v-257.422h76.8v217.6c79.644 68.267 126.578 167.822 126.578 273.067 0 162.133-106.667 298.667-254.578 345.6z" />
<glyph unicode="&#xe620;" glyph-name="Edit" d="M93.867 0.712l192 28.444-172.089 170.667-27.022-192zM529.067 344.89l-19.911 18.489 372.622 374.044-58.311 58.311-372.622-372.622-19.911 18.489 374.044 374.044-36.978 36.978-612.978-612.978 170.667-170.667 611.556 611.556-35.556 38.4z" />
<glyph unicode="&#xe621;" glyph-name="Open-Session" d="M264.534 0.711c-66.844-42.667-122.311-12.8-122.311 69.689v712.533c0 79.644 56.889 112.356 122.311 69.689l550.4-347.022c66.844-42.667 66.844-113.778 0-156.444l-550.4-348.444z" />
<glyph unicode="&#xe622;" glyph-name="Cloud" d="M246.044 98.845c-109.511 0-199.111 89.6-199.111 200.533 0 100.978 75.378 184.889 173.511 197.689 28.444 83.911 110.933 140.8 203.378 133.689 34.133 73.956 108.089 123.733 192 123.733 113.778 0 206.222-89.6 210.489-201.956 88.178-34.133 150.756-120.889 150.756-219.022 0-129.422-105.244-233.244-233.244-233.244h-344.178v76.8h344.178c86.756 0 156.444 69.689 156.444 156.444 0 72.533-51.2 136.533-122.311 152.178l-34.133 7.111 4.267 34.133c0 5.689 1.422 9.956 1.422 15.644 0 73.956-59.733 133.689-133.689 133.689-61.156 0-113.778-41.244-129.422-99.556l-9.956-36.978-36.978 9.956c-11.378 2.844-21.333 4.267-31.289 4.267-59.733 0-109.511-42.667-120.889-100.978l-5.689-32.711h-32.711c-1.422 0-2.844 0-2.844 0-66.844 0-122.311-55.467-122.311-122.311s55.467-122.311 122.311-122.311v-76.8z" />
<glyph unicode="&#xe623;" glyph-name="User" d="M721.068 389.689v-213.333h-118.044v-122.311h-184.889v122.311h-118.044v297.244h119.467v75.378h-1.422l1.422 1.422c-31.289 25.6-49.778 66.844-49.778 106.667 0 78.222 64 140.8 140.8 140.8s140.8-64 140.8-140.8c0-45.511-22.756-88.178-59.733-115.2l-93.867-68.267h297.244v75.378h-96.711c19.911 31.289 28.444 69.689 28.444 108.089 0 119.467-96.711 214.756-214.756 214.756-119.467 0-214.756-96.711-214.756-214.756 0-38.4 9.956-76.8 28.444-108.089h-98.133v-445.156h118.044v-122.311h332.8v122.311h118.044v285.867h-75.378z" />
<glyph unicode="&#xe624;" glyph-name="FAQ" d="M598.045 1.423h-236.089v93.867h-157.867v140.8c-19.911 15.644-55.467 44.089-73.956 62.578l-19.911 19.911 12.8 24.178c1.422 4.267 38.4 71.111 76.8 118.044 0 9.956-1.422 19.911-1.422 32.711-1.422 197.689 159.289 358.4 356.978 358.4s358.4-160.711 358.4-358.4c0-105.244-44.089-203.378-123.733-273.067v-216.178h-78.222v256l14.222 12.8c69.689 52.622 109.511 133.689 109.511 223.289 0 155.022-126.578 283.022-283.022 283.022-153.6 0-281.6-126.578-281.6-283.022 0-12.8 0-27.022 1.422-38.4l1.422-18.489-12.8-14.222c-22.756-22.756-46.933-61.156-62.578-89.6 19.911-18.489 46.933-41.244 58.311-48.356l14.222-12.8v-99.556h166.4v-93.867h160.711v-79.644zM747.379 509.156c0 15.644-5.689 29.867-14.222 44.089 1.422 5.689 1.422 14.222 1.422 19.911 0 62.578-51.2 113.778-113.778 113.778-19.911 0-41.244-5.689-56.889-14.222-12.8 19.911-34.133 34.133-61.156 34.133-38.4 0-71.111-32.711-71.111-71.111 0-5.689 0-12.8 1.422-15.644-29.867-4.267-52.622-29.867-52.622-61.156 0-34.133 28.444-61.156 61.156-61.156 9.956 0 19.911 1.422 28.444 8.533 19.911-34.133 62.578-56.889 112.356-56.889 12.8 0 27.022 1.422 36.978 4.267 9.956-8.533 22.756-14.222 34.133-15.644v0c0-24.178 19.911-44.089 44.089-44.089s44.089 19.911 44.089 44.089c0 12.8-4.267 22.756-12.8 29.867 14.222 9.956 18.489 24.178 18.489 41.244z" />
<glyph unicode="&#xe625;" glyph-name="General" d="M881.066 226.134l68.267 19.911-156.444 526.222-68.267-19.911 11.378-38.4-580.267-302.933-12.8 45.511-68.267-19.911 38.4-128 577.422 301.511 83.911-283.022-648.533-59.733 38.4-128 68.267 19.911-12.8 45.511 132.267 12.8c27.022-83.911 106.667-136.533 190.578-136.533 18.489 0 38.4 1.422 56.889 7.111 76.8 21.333 132.267 88.178 142.222 164.978l132.267 12.8 7.111-39.822zM575.288 155.023c-62.578-18.489-126.578 11.378-153.6 68.267l241.778 21.333c-11.378-41.244-44.089-76.8-88.178-89.6zM790.044 328.534l-85.333 288.711 52.622 27.022 91.022-311.467-58.311-4.267z" />
<glyph unicode="&#xe626;" glyph-name="Product" d="M792.889-4.267l-281.6 192-194.844-135.111-39.822 59.733 234.667 160.711 152.178-103.822-54.044 174.933 147.911 113.778h-184.889l-61.156 177.778-59.733-177.778h-186.311l129.422-98.133-42.667-56.889-292.978 224.711 341.333 2.844 110.933 327.111 110.933-327.111 342.756-2.844-273.067-209.067z" />
<glyph unicode="&#xe627;" glyph-name="Acrobat" d="M893.156 292.978c-1.422-2.844-1.422-5.689-2.844-8.533 0-1.422 0-4.267-2.844-4.267v-1.422c-2.844-18.489-15.644-25.6-32.711-28.444-14.222-2.844-27.022-1.422-41.244 0-54.044 5.689-103.822 24.178-152.178 49.778-8.533 4.267-17.067 4.267-25.6 2.844-35.556-4.267-69.689-8.533-105.244-15.644-58.311-9.956-116.622-25.6-173.511-45.511-1.422 0-2.844-2.844-4.267-4.267-18.489-31.289-36.978-61.156-56.889-91.022-15.644-22.756-32.711-45.511-52.622-64-12.8-12.8-27.022-25.6-44.089-32.711-5.689-2.844-11.378-4.267-17.067-5.689-4.267 0-7.111 0-11.378 0-11.378 2.844-21.333 8.533-31.289 14.222-4.267 2.844-5.689 5.689-7.111 9.956 0 1.422-1.422 2.844-1.422 4.267 0 4.267 0 8.533 0 12.8 0 2.844 1.422 5.689 1.422 8.533 4.267 19.911 15.644 35.556 29.867 49.778 31.289 32.711 68.267 61.156 109.511 83.911 1.422-2.844 4.267-5.689 5.689-8.533s4.267-5.689 5.689-8.533c-7.111-5.689-15.644-11.378-22.756-18.489-28.444-24.178-54.044-49.778-75.378-81.067-5.689-8.533-9.956-18.489-15.644-28.444 0-1.422-1.422-2.844 0-4.267 4.267 2.844 8.533 4.267 12.8 7.111 15.644 9.956 28.444 24.178 41.244 38.4 27.022 32.711 49.778 66.844 69.689 102.4 35.556 61.156 69.689 123.733 99.556 189.156 21.333 48.356 41.244 98.133 55.467 150.756 0 1.422 0 2.844 0 4.267-8.533 28.444-15.644 56.889-19.911 85.333-4.267 35.556-7.111 69.689-2.844 105.244 1.422 8.533 2.844 15.644 5.689 22.756 4.267 12.8 9.956 22.756 24.178 25.6 7.111 0 14.222 0 21.333 0 1.422 0 2.844 0 4.267-1.422 14.222-1.422 24.178-9.956 27.022-22.756 2.844-11.378 1.422-22.756-1.422-34.133-7.111 0-14.222 0-19.911 0-1.422 11.378-4.267 22.756-12.8 31.289-4.267-7.111-5.689-14.222-7.111-21.333-2.844-18.489-2.844-36.978-1.422-56.889 1.422-14.222 2.844-28.444 5.689-42.667 0 0 0-1.422 1.422-1.422 4.267 25.6 8.533 52.622 12.8 78.222 7.111-1.422 14.222-1.422 19.911-2.844 0-8.533 0-15.644 0-22.756 0-21.333-1.422-42.667-2.844-64-1.422-25.6-2.844-52.622-7.111-78.222 0-1.422 0-2.844 0-2.844 14.222-42.667 32.711-83.911 58.311-120.889 22.756-32.711 51.2-59.733 83.911-81.067 9.956-7.111 19.911-12.8 29.867-18.489 1.422-1.422 4.267-1.422 5.689-1.422 31.289 2.844 62.578 5.689 93.867 5.689 25.6 0 52.622-1.422 78.222-8.533 11.378-2.844 22.756-7.111 31.289-12.8s15.644-14.222 17.067-24.178c0 0 0 0 0-1.422 0-4.267 0-7.111 0-11.378zM475.022 496.356c-24.178-79.644-62.578-152.178-102.4-224.711 73.956 29.867 149.333 49.778 227.556 65.422-58.311 41.244-96.711 95.289-125.156 159.289zM868.978 284.445c0 7.111-4.267 11.378-9.956 12.8-9.956 5.689-19.911 7.111-31.289 8.533-17.067 1.422-32.711 2.844-49.778 4.267-11.378 0-22.756 0-32.711 0 11.378-4.267 22.756-8.533 34.133-12.8 22.756-7.111 45.511-12.8 68.267-14.222 7.111 0 14.222 1.422 21.333 1.422z" />
<glyph unicode="&#xe628;" glyph-name="Html" d="M899.556 426.667c0 64-15.644 126.578-45.511 182.044 0 0 0 0 0 0-64 120.889-189.156 199.111-324.267 206.222 0 0 0 0 0 0s0 0 0 0c-11.378 0-21.333 0-32.711 0-137.956-5.689-263.111-83.911-328.533-204.8-28.444-56.889-44.089-119.467-44.089-183.467 0-62.578 15.644-126.578 45.511-182.044 0 0 0 0 0 0 64-120.889 189.156-200.533 328.533-206.222 0 0 0 0 0 0 4.267 0 9.956 0 14.222 0 5.689 0 12.8 0 18.489 0 0 0 0 0 0 0 135.111 5.689 260.267 85.333 324.267 204.8 0 0 0 0 0 0 28.444 58.311 44.089 120.889 44.089 183.467zM771.556 312.889c0 0 0 0 0 0-14.222 5.689-27.022 9.956-41.244 14.222-1.422 0-2.844 1.422-4.267 1.422 0 1.422 0 1.422 0 2.844 0 2.844 1.422 4.267 1.422 7.111 1.422 7.111 2.844 14.222 4.267 21.333 0 2.844 1.422 5.689 1.422 9.956 1.422 7.111 1.422 14.222 1.422 19.911 0 2.844 0 5.689 0 8.533 0 9.956 1.422 19.911 1.422 28.444 0 9.956 0 19.911-1.422 28.444 0 2.844 0 5.689 0 8.533 0 7.111-1.422 14.222-1.422 19.911 0 2.844-1.422 5.689-1.422 9.956-1.422 7.111-2.844 14.222-4.267 21.333 0 2.844-1.422 4.267-1.422 7.111 0 1.422 0 1.422 0 2.844 1.422 0 2.844 1.422 4.267 1.422 14.222 4.267 27.022 8.533 39.822 14.222 0 0 0 0 1.422 0 14.222 5.689 27.022 9.956 39.822 17.067 1.422 0 2.844 1.422 4.267 1.422 18.489-41.244 27.022-86.756 27.022-132.267s-9.956-91.022-27.022-132.267c-1.422 0-2.844 1.422-4.267 1.422-12.8 7.111-25.6 11.378-39.822 17.067zM653.512 274.489c-2.844-7.111-5.689-12.8-8.533-19.911-1.422-4.267-4.267-7.111-5.689-11.378-2.844-5.689-5.689-12.8-9.956-18.489-1.422-4.267-4.267-7.111-5.689-11.378-2.844-5.689-7.111-11.378-11.378-17.067-2.844-2.844-4.267-7.111-7.111-9.956-4.267-5.689-8.533-11.378-12.8-17.067-2.844-2.844-4.267-5.689-7.111-8.533-5.689-7.111-12.8-14.222-18.489-21.333-1.422-1.422-1.422-2.844-2.844-2.844-7.111-8.533-15.644-15.644-24.178-22.756-2.844-2.844-5.689-4.267-7.111-7.111-4.267-4.267-9.956-8.533-14.222-11.378-2.844 0-7.111 0-9.956 0-5.689 4.267-9.956 8.533-14.222 11.378-2.844 1.422-5.689 4.267-7.111 5.689-8.533 7.111-15.644 15.644-24.178 22.756-1.422 1.422-1.422 1.422-2.844 2.844-7.111 7.111-12.8 14.222-19.911 21.333-2.844 2.844-4.267 5.689-7.111 8.533-4.267 5.689-8.533 11.378-12.8 17.067-2.844 2.844-4.267 7.111-7.111 9.956-4.267 5.689-7.111 11.378-11.378 17.067-2.844 4.267-4.267 7.111-7.111 11.378-2.844 5.689-5.689 11.378-9.956 18.489-1.422 4.267-4.267 7.111-5.689 11.378-2.844 7.111-5.689 12.8-8.533 19.911-1.422 4.267-2.844 7.111-4.267 11.378 0 1.422 0 1.422-1.422 2.844 2.844 0 5.689 1.422 8.533 1.422 4.267 1.422 8.533 1.422 14.222 2.844 8.533 1.422 18.489 2.844 27.022 4.267 4.267 0 8.533 1.422 12.8 1.422 9.956 1.422 19.911 1.422 31.289 2.844 2.844 0 7.111 0 9.956 1.422 27.022 1.422 55.467 1.422 82.489 0 2.844 0 5.689 0 9.956-1.422 9.956-1.422 21.333-1.422 31.289-2.844 4.267 0 8.533-1.422 12.8-1.422 9.956-1.422 18.489-2.844 28.444-4.267 4.267-1.422 8.533-1.422 12.8-2.844 2.844 0 5.689-1.422 8.533-1.422 0-1.422 0-1.422-1.422-2.844 2.844-2.844 1.422-5.689 0-9.956zM253.867 314.311c-1.422 0-1.422 0 0 0-14.222-5.689-28.444-11.378-42.667-17.067-1.422 0-2.844-1.422-4.267-1.422-18.489 41.244-27.022 86.756-27.022 132.267s9.956 91.022 27.022 132.267c1.422 0 2.844-1.422 4.267-1.422 14.222-5.689 27.022-11.378 41.244-17.067 0 0 0 0 1.422 0 14.222-5.689 28.444-9.956 41.244-14.222 1.422 0 2.844-1.422 4.267-1.422 0-1.422 0-1.422 0-2.844 0-2.844-1.422-4.267-1.422-7.111-1.422-7.111-2.844-14.222-4.267-21.333 0-2.844-1.422-5.689-1.422-9.956-1.422-7.111-1.422-12.8-1.422-19.911 0-2.844 0-5.689 0-8.533 0-9.956-1.422-18.489-1.422-28.444s0-18.489 1.422-28.444c0-2.844 0-5.689 0-8.533 0-7.111 1.422-12.8 1.422-19.911 0-2.844 1.422-7.111 1.422-9.956 1.422-7.111 2.844-14.222 2.844-21.333 0-2.844 1.422-4.267 1.422-7.111 0-1.422 0-1.422 0-2.844-1.422 0-2.844-1.422-4.267-1.422-12.8-5.689-27.022-9.956-39.822-14.222zM373.334 578.845c2.844 7.111 5.689 12.8 8.533 19.911 1.422 4.267 4.267 7.111 5.689 11.378 2.844 5.689 5.689 11.378 9.956 18.489 1.422 4.267 4.267 7.111 7.111 11.378 2.844 5.689 7.111 11.378 11.378 17.067 2.844 2.844 4.267 7.111 7.111 9.956 4.267 5.689 8.533 11.378 12.8 17.067 2.844 2.844 4.267 5.689 7.111 8.533 5.689 7.111 12.8 14.222 19.911 21.333 1.422 1.422 1.422 1.422 2.844 2.844 7.111 8.533 15.644 15.644 24.178 22.756 2.844 2.844 5.689 4.267 7.111 5.689 4.267 4.267 9.956 8.533 14.222 11.378 2.844 0 7.111 0 9.956 0 4.267-4.267 9.956-7.111 14.222-11.378 2.844-2.844 5.689-4.267 7.111-7.111 8.533-7.111 15.644-14.222 24.178-22.756 1.422-1.422 1.422-1.422 2.844-2.844 7.111-7.111 12.8-14.222 18.489-21.333 2.844-2.844 4.267-5.689 7.111-8.533 4.267-5.689 8.533-11.378 12.8-17.067 2.844-2.844 4.267-7.111 7.111-9.956 4.267-5.689 7.111-11.378 11.378-17.067 2.844-4.267 4.267-7.111 5.689-11.378 2.844-5.689 7.111-12.8 9.956-18.489 1.422-4.267 4.267-7.111 5.689-11.378 2.844-7.111 5.689-12.8 8.533-19.911 1.422-2.844 2.844-7.111 4.267-9.956 0-1.422 0-1.422 1.422-2.844-2.844 0-5.689-1.422-8.533-1.422-4.267-1.422-8.533-1.422-12.8-2.844-9.956-1.422-18.489-2.844-28.444-4.267-4.267 0-8.533-1.422-12.8-1.422-9.956-1.422-21.333-2.844-32.711-2.844-2.844 0-5.689 0-8.533 0-28.444-1.422-55.467-1.422-83.911 0-2.844 0-5.689 0-9.956 0-9.956 1.422-21.333 1.422-31.289 2.844-4.267 0-8.533 1.422-12.8 1.422-9.956 1.422-18.489 2.844-28.444 4.267-4.267 1.422-8.533 1.422-14.222 2.844-2.844 0-5.689 1.422-8.533 1.422 0 1.422 0 1.422 1.422 2.844 0 4.267 1.422 8.533 2.844 11.378zM646.401 347.023c-9.956 1.422-19.911 2.844-31.289 4.267-4.267 0-8.533 1.422-12.8 1.422-12.8 1.422-24.178 2.844-36.978 2.844-2.844 0-4.267 0-7.111 0-15.644 1.422-31.289 1.422-46.933 1.422s-29.867 0-45.511-1.422c-1.422 0-2.844 0-2.844 0-12.8-1.422-27.022-1.422-39.822-4.267-4.267 0-8.533-1.422-11.378-1.422-9.956-1.422-21.333-2.844-31.289-4.267-5.689-1.422-9.956-1.422-15.644-2.844-4.267-1.422-7.111-1.422-11.378-1.422 0 0 0 0 0 0 0 1.422 0 2.844 0 2.844-1.422 7.111-2.844 14.222-4.267 21.333 0 2.844 0 5.689-1.422 8.533-1.422 5.689-1.422 12.8-1.422 18.489 0 2.844 0 5.689 0 7.111 0 8.533-1.422 17.067-1.422 25.6s0 17.067 1.422 25.6c0 2.844 0 5.689 0 7.111 0 5.689 1.422 12.8 1.422 18.489 0 2.844 0 5.689 1.422 7.111 1.422 7.111 2.844 14.222 4.267 21.333 0 1.422 0 1.422 0 2.844 0 0 0 0 0 0 2.844-1.422 7.111-1.422 9.956-1.422 5.689-1.422 11.378-2.844 17.067-2.844 8.533-1.422 17.067-2.844 25.6-4.267 5.689-1.422 12.8-1.422 18.489-2.844 8.533-1.422 17.067-1.422 24.178-2.844 7.111 0 12.8-1.422 19.911-1.422 8.533 0 17.067 0 25.6-1.422 5.689 0 11.378 0 17.067 0 2.844 0 5.689 0 7.111 0 12.8 0 24.178 0 35.556 1.422 5.689 0 12.8 1.422 18.489 1.422 8.533 1.422 17.067 1.422 27.022 2.844 5.689 1.422 11.378 1.422 18.489 2.844 8.533 1.422 18.489 2.844 27.022 4.267 5.689 1.422 11.378 1.422 17.067 2.844 4.267 1.422 7.111 1.422 11.378 1.422 0 0 0 0 0-1.422s0-1.422 0-2.844c1.422-7.111 2.844-14.222 4.267-21.333 0-2.844 0-5.689 1.422-8.533 1.422-5.689 1.422-12.8 1.422-18.489 0-2.844 0-5.689 0-7.111 0-8.533 1.422-17.067 1.422-25.6s0-17.067-1.422-25.6c0-2.844 0-5.689 0-7.111 0-5.689-1.422-12.8-1.422-18.489 0-2.844 0-5.689-1.422-8.533-1.422-7.111-2.844-14.222-4.267-21.333 0-1.422 0-1.422 0-2.844 0 0 0 0 0-1.422-4.267 1.422-7.111 1.422-11.378 2.844-5.689 5.689-9.956 5.689-15.644 7.111zM790.045 608.711c0 0-1.422 0-1.422-1.422-11.378-5.689-24.178-9.956-35.556-14.222-1.422-1.422-4.267-1.422-5.689-1.422-9.956-4.267-19.911-7.111-31.289-9.956-1.422 0-2.844 0-4.267-1.422-1.422 2.844-1.422 5.689-2.844 7.111-1.422 2.844-1.422 4.267-2.844 7.111-4.267 11.378-8.533 21.333-12.8 31.289 0 1.422-1.422 2.844-1.422 4.267-4.267 9.956-9.956 19.911-15.644 29.867-1.422 1.422-1.422 2.844-2.844 4.267-5.689 9.956-11.378 19.911-18.489 29.867-1.422 1.422-2.844 4.267-4.267 5.689-7.111 9.956-12.8 18.489-21.333 27.022-1.422 1.422-1.422 2.844-2.844 2.844-2.844 4.267-7.111 8.533-11.378 12.8 72.533-24.178 133.689-71.111 174.933-133.689zM410.312 743.823c0 0 0-1.422 0 0-5.689-5.689-9.956-11.378-15.644-17.067-1.422-1.422-1.422-2.844-2.844-4.267-2.844-4.267-7.111-8.533-9.956-14.222-1.422-1.422-2.844-4.267-4.267-5.689-2.844-4.267-5.689-8.533-8.533-12.8-1.422-2.844-2.844-4.267-4.267-7.111-2.844-4.267-5.689-8.533-8.533-12.8-1.422-1.422-2.844-4.267-4.267-5.689-2.844-5.689-5.689-11.378-8.533-17.067 0-1.422-1.422-1.422-1.422-2.844-2.844-7.111-7.111-12.8-9.956-19.911-1.422-1.422-1.422-4.267-2.844-5.689-2.844-4.267-4.267-9.956-5.689-14.222-1.422-2.844-1.422-4.267-2.844-7.111-1.422-4.267-2.844-8.533-5.689-14.222 0-1.422-1.422-2.844-1.422-4.267-1.422 0-2.844 1.422-4.267 1.422-11.378 2.844-21.333 7.111-32.711 11.378-1.422 0-4.267 1.422-5.689 1.422-12.8 4.267-24.178 9.956-36.978 14.222-1.422 0-1.422 1.422-2.844 1.422 44.089 64 106.667 112.356 179.2 135.111zM232.534 246.045c1.422 0 1.422 1.422 2.844 1.422 12.8 5.689 24.178 9.956 36.978 14.222 1.422 1.422 4.267 1.422 5.689 1.422 9.956 4.267 21.333 7.111 31.289 9.956 1.422 0 2.844 1.422 4.267 1.422 0-1.422 1.422-2.844 1.422-4.267 1.422-4.267 2.844-8.533 5.689-14.222 1.422-2.844 1.422-4.267 2.844-7.111 1.422-4.267 4.267-9.956 5.689-14.222 1.422-1.422 1.422-4.267 2.844-5.689 2.844-7.111 5.689-12.8 9.956-19.911 0-1.422 1.422-1.422 1.422-2.844 2.844-5.689 5.689-11.378 9.956-17.067 1.422-1.422 2.844-4.267 4.267-5.689 2.844-4.267 5.689-8.533 8.533-12.8 1.422-2.844 2.844-4.267 4.267-7.111 2.844-4.267 5.689-8.533 8.533-12.8 1.422-1.422 2.844-4.267 4.267-5.689 2.844-4.267 7.111-8.533 9.956-14.222 1.422-1.422 1.422-2.844 2.844-4.267 4.267-5.689 9.956-11.378 14.222-17.067 0 0 0 0 0-1.422-72.533 25.6-136.533 73.956-177.778 137.956zM617.956 112.356c4.267 4.267 7.111 8.533 11.378 12.8 1.422 1.422 1.422 2.844 2.844 2.844 7.111 8.533 14.222 18.489 21.333 27.022 1.422 1.422 2.844 4.267 4.267 5.689 7.111 9.956 12.8 19.911 18.489 29.867 1.422 1.422 1.422 2.844 2.844 4.267 5.689 9.956 9.956 19.911 15.644 29.867 0 1.422 1.422 2.844 1.422 4.267 4.267 9.956 8.533 21.333 12.8 31.289 1.422 2.844 1.422 4.267 2.844 7.111s1.422 5.689 2.844 7.111c1.422 0 2.844 0 2.844-1.422 9.956-2.844 21.333-7.111 31.289-9.956 1.422 0 4.267-1.422 5.689-1.422 12.8-4.267 24.178-9.956 35.556-14.222 0 0 1.422 0 1.422-1.422-42.667-62.578-103.822-109.511-173.511-133.689z" />
<glyph unicode="&#xe629;" glyph-name="Back" d="M962.133 668.444h-484.978v176.356l-415.289-418.133 415.289-418.133v176.356h484.978z" />
<glyph unicode="&#xe62a;" glyph-name="Refresh" d="M504.177 702.578c62.578 0 120.889-19.911 170.667-55.467l-83.911-81.067 375.467-112.356-81.067 396.8-99.556-96.711c-78.222 64-177.778 100.978-281.6 100.978-196.267 0-366.933-126.578-423.822-314.311l146.489-44.089c36.978 122.311 149.333 206.222 277.333 206.222zM518.4 150.756c-62.578 0-120.889 19.911-170.667 55.467l83.911 81.067-374.044 112.356 79.644-396.8 99.556 96.711c78.222-64 177.778-100.978 281.6-100.978 196.267 0 366.933 126.578 423.822 314.311l-146.489 44.089c-35.556-123.733-147.911-206.222-277.333-206.222z" />
<glyph unicode="&#xe62b;" glyph-name="Home" d="M932.978 515.556l-398.222 338.489c-12.8 9.956-32.711 9.956-45.511 0l-398.222-338.489c-12.8-9.956-14.222-28.444-4.267-41.244 9.956-11.378 28.444-12.8 41.244-2.844l361.244 308.622c12.8 9.956 32.711 9.956 45.511 0l361.244-308.622c12.8-9.956 31.289-9.956 41.244 2.844s8.533 31.289-4.267 41.244zM489.245 694.756l-305.778-261.689v-399.644c0-24.178 19.911-44.089 44.089-44.089h156.444v224.711c0 24.178 19.911 44.089 44.089 44.089h156.444c24.178 0 44.089-19.911 44.089-44.089v-223.289h166.4c24.178 0 44.089 19.911 44.089 44.089v398.222l-304.356 261.689c-12.8 9.956-32.711 9.956-45.511 0z" />
<glyph unicode="&#xe62c;" glyph-name="Team" horiz-adv-x="1027" d="M838.635 620.090c9.956 19.911 12.8 42.667 12.8 64 0 89.6-72.533 162.133-162.133 162.133-75.378 0-142.222-54.044-157.867-128l72.533-15.644c9.956 39.822 45.511 69.689 85.333 69.689 48.356 0 88.178-39.822 88.178-88.178 0-25.6-11.378-49.778-31.289-66.844v-72.533h79.644v-186.311h-83.911v-109.511h-17.067v159.289h-73.956v-223.289h-82.489v-109.511h-108.089v109.511h-83.911v187.733h79.644v72.533c-18.489 17.067-29.867 41.244-29.867 66.844 0 48.356 38.4 88.178 88.178 88.178s88.178-39.822 88.178-88.178c0-28.444-12.8-55.467-36.978-72.533l42.667-59.733c42.667 31.289 68.267 81.067 68.267 132.267 0 89.6-72.533 162.133-162.133 162.133s-162.133-72.533-162.133-162.133c0-22.756 5.689-44.089 12.8-64h-61.156v-197.689h-25.6v109.511h-82.489v187.733h79.644v72.533c-19.911 17.067-31.289 41.244-31.289 66.844 0 48.356 39.822 88.178 88.178 88.178v0c41.244 0 76.8-28.444 85.333-69.689l72.533 15.644c-15.644 75.378-81.067 128-157.867 128v0c-89.6 0-162.133-72.533-162.133-162.133 0-22.756 5.689-44.089 12.8-64h-61.156v-335.644h83.911v-109.511h99.556v-64h83.911v-109.511h256v109.511h83.911v64h92.444v109.511h83.911v334.222l-66.844-1.422z" />
<glyph unicode="&#xe62d;" glyph-name="Forum-Social" d="M914.489 627.912h-298.667v196.267c0 14.222-11.378 25.6-25.6 25.6h-484.978c-14.222 0-25.6-11.378-25.6-25.6v-364.089c0-14.222 11.378-25.6 25.6-25.6h106.667v-125.156l112.356 96.711v-227.556c0-17.067 12.8-29.867 29.867-29.867h123.733v-145.067l167.822 145.067h267.378c17.067 0 29.867 12.8 29.867 29.867v419.556c1.422 17.067-12.8 29.867-28.444 29.867zM324.267 598.045v-123.733l-46.933-39.822h-12.8v52.622h-132.267v311.467h432.356v-170.667h-209.067c-17.067 0-31.289-12.8-31.289-29.867zM883.201 208.356h-258.844l-69.689-59.733h-15.644v59.733h-153.6v359.822h499.2v-359.822z" />
<glyph unicode="&#xe62e;" glyph-name="RSS" d="M112.356 855.467c2.844 0 4.267-1.422 7.111-1.422 36.978-1.422 73.956-5.689 109.511-11.378 115.2-19.911 221.867-64 320-125.156 54.044-34.133 103.822-75.378 149.333-120.889 64-65.422 115.2-139.378 155.022-221.867 32.711-66.844 56.889-136.533 72.533-209.067 8.533-45.511 14.222-91.022 15.644-137.956 0-9.956 0-19.911 0-28.444 0 0 0-1.422 0-1.422-54.044 0-109.511 0-163.556 0-5.689 207.644-83.911 384-240.356 523.378-132.267 109.511-281.6 167.822-453.689 169.244 0 55.467 0 109.511 0 164.978 8.533 0 18.489 0 28.444 0zM83.912 563.911c332.8 0 571.733-278.756 566.044-566.044-54.044 0-109.511 0-164.978 0 0 135.111-58.311 241.778-163.556 324.267-69.689 54.044-149.333 78.222-237.511 78.222 0 54.044 0 108.089 0 163.556zM310.045 111.644c0-62.838-50.94-113.778-113.778-113.778s-113.778 50.94-113.778 113.778c0 62.838 50.94 113.778 113.778 113.778s113.778-50.94 113.778-113.778z" />
<glyph unicode="&#xe62f;" glyph-name="Compare" d="M859.733 210.489h-159.289v79.644h79.644v484.978h-307.2v-172.089h-79.644v251.733h466.489zM629.333-1.422h-465.067v644.267h465.067v-244.622h-79.644v164.978h-305.778v-484.978h305.778v27.022h79.644zM444.445 378.311l145.067-129.422-145.067-129.422zM736 119.467l-146.489 129.422 146.489 129.422z" />
<glyph unicode="&#xe630;" glyph-name="Like" d="M86.756 546.846h150.756v-479.289h-150.756v479.289zM671.289 549.691c34.133 92.444 34.133 177.778-1.422 234.667-24.178 39.822-64 61.156-112.356 61.156-96.711 0-116.622-102.4-132.267-183.467-1.422-11.378-4.267-22.756-7.111-34.133-14.222-65.422-99.556-96.711-99.556-96.711l-27.022-9.956v-54.044h81.067c39.822 19.911 109.511 65.422 125.156 145.067 2.844 11.378 4.267 22.756 7.111 35.556 15.644 82.489 27.022 118.044 52.622 118.044 18.489 0 32.711-7.111 42.667-22.756 19.911-31.289 25.6-105.244-24.178-204.8l-24.178-48.356 287.289-51.2-75.378-312.889c-25.6-12.8-86.756-36.978-170.667-36.978-73.956 0-147.911 19.911-220.444 56.889v203.378h-81.067v-250.311l19.911-11.378c91.022-52.622 184.889-79.644 281.6-79.644 133.689 0 223.289 52.622 226.133 55.467l14.222 8.533 103.822 432.356-265.956 45.511z" />
<glyph unicode="&#xe631;" glyph-name="Play" d="M514.133-18.488c-4.267 0-8.533 0-12.8 0-243.2 7.111-435.2 210.489-429.511 453.689 7.111 244.622 207.644 436.622 453.689 429.511 118.044-2.844 227.556-52.622 308.622-137.956s123.733-197.689 120.889-315.733c-7.111-240.356-200.533-429.511-440.889-429.511zM514.133 780.801c-194.844 0-351.289-152.178-356.978-347.022-5.689-196.267 150.756-361.244 347.022-366.933 199.111-5.689 361.244 149.333 366.933 347.022 2.844 95.289-32.711 186.311-98.133 254.578-65.422 69.689-153.6 108.089-248.889 110.933-4.267 1.422-7.111 1.422-9.956 1.422zM444.444 221.867c-32.711-19.911-58.311-5.689-58.311 32.711v338.489c0 38.4 27.022 52.622 58.311 32.711l260.267-164.978c32.711-19.911 32.711-54.044 0-73.956l-260.267-164.978z" />
<glyph unicode="&#xe632;" glyph-name="PDF" d="M841.244 588.089v0l-265.956 265.956h-392.533v-854.756h658.489v457.956h-73.956v-384h-512v708.267h247.467v-264.533h338.489v71.111zM576.711 589.511v159.289l160.711-159.289h-160.711zM336.355 411.733v-219.022h25.6v91.022c4.267 0 7.111 0 11.378 0 19.911 0 39.822 8.533 52.622 24.178 8.533 11.378 14.222 25.6 14.222 45.511 0 18.489-5.689 35.556-17.067 45.511-11.378 11.378-28.444 17.067-49.778 17.067-14.222 0-27.022-1.422-36.978-4.267zM413.155 352c0-31.289-17.067-48.356-42.667-48.356-4.267 0-7.111 0-9.956 1.422v88.178c2.844 1.422 8.533 1.422 14.222 1.422 29.867 0 38.4-19.911 38.4-42.667zM468.622 411.733v-219.022c7.111-1.422 18.489-2.844 28.444-2.844 25.6 0 46.933 7.111 61.156 24.178 14.222 15.644 27.022 42.667 27.022 93.867 0 46.933-12.8 75.378-29.867 89.6-12.8 11.378-28.444 17.067-52.622 17.067-12.8 1.422-24.178 0-34.133-2.844zM558.222 307.911c0-75.378-27.022-95.289-55.467-95.289-2.844 0-5.689 0-9.956 0v180.622c2.844 1.422 8.533 1.422 11.378 1.422 36.978 0 54.044-31.289 54.044-86.756zM700.444 391.822v22.756h-85.333v-223.289h25.6v102.4h55.467v21.333h-55.467v76.8z" />
<glyph unicode="&#xe633;" glyph-name="Script" d="M386.845 471.462h49.778v-22.756h-49.778v22.756zM473.6 471.462h115.2v-22.756h-115.2v22.756zM386.845 578.128h49.778v-22.756h-49.778v22.756zM473.6 578.128h115.2v-22.756h-115.2v22.756zM816.356 791.462h-423.822c-86.756 0-157.867-79.644-157.867-179.2l1.422-334.222h-187.733v-36.978c0-98.133 71.111-177.778 157.867-177.778h120.889v72.533h-120.889c-36.978 0-66.844 28.444-79.644 68.267h295.822c14.222-81.067 78.222-142.222 155.022-142.222 86.756 0 157.867 79.644 157.867 179.2l-1.422 371.2c0 58.311 38.4 105.244 85.333 105.244 36.978 0 66.844-28.444 79.644-68.267h-61.156v-72.533h137.956v36.978c-1.422 98.133-72.533 177.778-159.289 177.778zM658.489 613.684l1.422-371.2c0-58.311-38.4-105.244-85.333-105.244s-85.333 46.933-85.333 105.244v36.978h-180.622l-1.422 334.222c0 58.311 38.4 105.244 85.333 105.244h297.244c-18.489-29.867-31.289-66.844-31.289-105.244z" />
<glyph unicode="&#xe634;" glyph-name="Report" d="M331.378 588.801h108.089v-108.089h-108.089v108.089zM331.378 418.135h108.089v-108.089h-108.089v108.089zM331.378 247.468h108.089v-108.089h-108.089v108.089zM793.6 807.824h-193.422c-17.067 31.289-49.778 52.622-88.178 52.622s-71.111-21.333-88.178-52.622h-194.844c-24.178 0-42.667-18.489-42.667-42.667v-729.6c0-24.178 18.489-42.667 42.667-42.667h566.044c24.178 0 42.667 18.489 42.667 42.667v729.6c-1.422 24.178-19.911 42.667-44.089 42.667zM758.044 83.913h-494.933v632.889h95.289v-44.089c0-17.067 12.8-29.867 29.867-29.867h243.2c17.067 0 29.867 12.8 29.867 29.867v44.089h95.289v-632.889zM561.778 760.89c0-27.022-22.756-49.778-49.778-49.778s-49.778 21.333-49.778 49.778 22.756 49.778 49.778 49.778 49.778-22.756 49.778-49.778z" />
<glyph unicode="&#xe635;" glyph-name="Apple" d="M863.288 589.511c-35.556 45.511-85.333 89.6-159.289 89.6-52.622 0-96.711-51.2-167.822-51.2-56.889 0-81.067 48.356-143.644 48.356-129.422 0-258.844-116.622-258.844-267.378 0-79.644 25.6-203.378 85.333-310.044 42.667-78.222 95.289-129.422 153.6-129.422 42.667 0 92.444 38.4 152.178 38.4 52.622 0 100.978-35.556 147.911-35.556 113.778 0 217.6 146.489 217.6 246.044 0 5.689-1.422 8.533-1.422 12.8v5.689c-73.956 39.822-113.778 98.133-113.778 183.467 0 68.267 29.867 128 85.333 167.822l2.844 1.422zM533.332 644.977c85.333 25.6 163.556 89.6 163.556 200.533 0 8.533-1.422 19.911-2.844 32.711l-1.422 5.689c-86.756-24.178-163.556-91.022-163.556-197.689 0-9.956 1.422-22.756 4.267-35.556v-5.689z" />
<glyph unicode="&#xe636;" glyph-name="Earth" d="M523.378 860.444c-243.2 7.111-442.311-182.044-448-425.244-7.111-240.356 184.889-442.311 425.244-449.422 4.267 0 8.533 0 11.378 0 238.933 0 430.933 186.311 436.622 425.244 7.111 241.778-183.467 442.311-425.244 449.422zM502.045 69.689c-194.844 5.689-348.444 167.822-342.756 362.667 2.844 92.444 39.822 174.933 98.133 236.089 1.422-9.956 5.689-19.911 12.8-29.867 8.533-11.378 12.8-24.178 21.333-35.556 8.533-12.8 18.489-24.178 27.022-36.978 2.844-4.267 1.422-9.956 2.844-15.644 2.844-22.756 7.111-42.667 22.756-61.156 11.378-12.8 19.911-29.867 29.867-44.089 1.422-1.422 1.422-1.422 5.689-4.267-5.689 12.8-11.378 21.333-15.644 29.867 1.422 1.422 2.844 1.422 4.267 2.844 9.956-12.8 19.911-25.6 28.444-38.4 8.533-15.644 22.756-22.756 38.4-27.022 18.489-5.689 34.133-12.8 46.933-27.022 7.111-8.533 18.489-12.8 29.867-19.911 0 1.422 0 0 0 0-15.644-27.022-5.689-54.044 4.267-79.644 2.844-7.111 8.533-12.8 15.644-15.644 7.111-4.267 9.956-9.956 8.533-18.489-4.267-28.444-9.956-55.467-12.8-83.911-1.422-25.6-11.378-51.2 1.422-75.378 1.422-2.844 5.689-9.956 9.956-15.644-12.8-2.844-24.178-2.844-36.978-2.844zM864.711 413.866c-4.267-176.356-135.111-317.156-304.356-339.911-4.267 11.378-7.111 22.756 1.422 29.867 4.267 2.844 2.844 11.378 4.267 17.067s1.422 15.644 5.689 18.489c25.6 21.333 42.667 49.778 59.733 79.644 5.689 9.956 12.8 18.489 24.178 19.911 11.378 2.844 15.644 8.533 17.067 19.911 1.422 17.067 4.267 32.711 17.067 45.511 8.533 9.956 2.844 25.6-9.956 25.6-19.911 1.422-32.711 12.8-42.667 28.444-4.267 5.689-11.378 11.378-18.489 12.8-27.022 5.689-55.467 11.378-82.489 14.222-9.956 1.422-19.911-2.844-29.867-4.267-2.844 0-7.111-1.422-8.533 0-5.689 7.111-8.533 18.489-14.222 22.756-8.533 5.689-12.8 12.8-7.111 25.6-14.222-4.267-25.6-8.533-38.4-11.378-7.111 15.644-12.8 29.867-1.422 41.244 8.533 7.111 24.178 7.111 35.556 9.956 18.489 4.267 15.644-17.067 28.444-22.756 0 5.689 0 11.378-1.422 17.067-2.844 8.533-1.422 14.222 5.689 19.911 7.111 7.111 11.378 18.489 18.489 27.022 9.956 11.378 19.911 22.756 29.867 32.711 1.422 1.422 4.267 2.844 7.111 1.422 12.8-2.844 12.8-2.844 22.756 5.689-2.844 4.267-5.689 9.956-8.533 14.222 0 1.422 1.422 2.844 1.422 4.267 35.556 27.022 25.6 32.711 9.956 58.311-5.689 9.956-11.378 19.911-18.489 29.867-4.267-5.689-8.533-9.956-12.8-14.222-7.111 9.956-14.222 18.489-22.756 27.022-2.844 2.844-9.956 5.689-15.644 4.267-2.844 0-5.689-8.533-5.689-12.8 0-9.956 2.844-18.489 4.267-28.444 0-4.267 1.422-8.533 0-11.378-2.844-7.111-5.689-14.222-8.533-21.333-1.422-2.844-2.844-4.267-5.689-5.689-1.422 0-5.689 1.422-5.689 2.844-1.422 22.756-21.333 25.6-35.556 35.556-5.689 4.267-15.644 9.956-15.644 12.8 1.422 11.378 4.267 24.178 9.956 34.133 7.111 11.378 17.067 19.911 27.022 28.444 7.111 7.111 9.956 14.222 8.533 24.178-1.422 8.533-4.267 12.8-12.8 12.8-11.378 0-22.756 1.422-35.556 2.844-11.378 1.422-19.911-1.422-27.022-11.378-2.844-2.844-8.533-5.689-12.8-5.689-19.911 0-42.667 4.267-64 1.422 38.4 21.333 81.067 34.133 125.156 39.822 0 0 0-1.422-1.422-2.844 4.267-9.956 15.644-12.8 25.6-15.644 35.556-7.111 39.822-14.222 36.978-51.2-4.267-1.422-8.533-2.844-15.644-4.267 15.644-9.956 31.289-18.489 46.933-28.444-1.422 4.267-2.844 7.111-4.267 11.378 2.844 0 5.689 1.422 9.956 1.422-2.844 8.533-5.689 15.644-11.378 27.022 7.111-4.267 9.956-5.689 14.222-8.533 8.533 8.533 7.111 17.067-2.844 24.178-4.267 2.844-7.111 7.111-9.956 11.378-4.267 7.111-9.956 22.756-15.644 34.133 25.6-2.844 49.778-7.111 72.533-14.222-1.422-1.422-1.422-2.844-1.422-4.267-1.422-4.267-1.422-8.533-2.844-14.222-1.422-29.867 12.8-54.044 31.289-75.378 8.533-8.533 18.489-8.533 24.178 2.844 8.533 15.644 17.067 29.867 27.022 44.089 2.844 2.844 4.267 7.111 4.267 9.956 112.356-61.156 179.2-176.356 174.933-305.778zM487.822 702.577c-4.267-7.111-7.111-12.8-9.956-18.489 0-1.422 1.422-2.844 1.422-4.267 7.111 1.422 14.222 2.844 22.756 4.267 0 1.422 0 4.267 0 5.689-4.267 4.267-8.533 8.533-14.222 12.8z" />
<glyph unicode="&#xe637;" glyph-name="Windows" d="M935.823 445.867v411.022l-472.178-69.689v-341.333zM430.934 782.934l-342.756-49.778v-287.289h342.756zM88.179 411.734v-290.133l342.756-51.2v341.333zM463.645 66.134l472.178-69.689v415.289h-472.178z" />
<glyph unicode="&#xe638;" glyph-name="Cloud-2" d="M760.178 115.202h-465.067c-123.733 1.422-223.289 100.978-223.289 224.711 0 92.444 58.311 174.933 142.222 207.644 5.689 106.667 95.289 190.578 201.956 190.578 78.222 0 149.333-45.511 182.044-115.2 2.844 0 7.111 0 9.956 0 82.489 0 153.6-51.2 180.622-126.578 92.444-14.222 163.556-93.867 163.556-190.578 0-103.822-86.756-190.578-192-190.578v0z" />
<glyph unicode="&#xe639;" glyph-name="Online" d="M899.556 426.667c0 64-15.644 126.578-45.511 182.044 0 0 0 0 0 0-64 120.889-189.156 199.111-324.267 206.222 0 0 0 0 0 0s0 0 0 0c-11.378 0-21.333 0-32.711 0-137.956-5.689-263.111-83.911-328.533-204.8-28.444-56.889-44.089-119.467-44.089-183.467 0-62.578 15.644-126.578 45.511-182.044 0 0 0 0 0 0 64-120.889 189.156-200.533 328.533-206.222 0 0 0 0 0 0 4.267 0 9.956 0 14.222 0 5.689 0 12.8 0 18.489 0 0 0 0 0 0 0 135.111 5.689 260.267 85.333 324.267 204.8 0 0 0 0 0 0 28.444 58.311 44.089 120.889 44.089 183.467zM771.556 312.889c0 0 0 0 0 0-14.222 5.689-27.022 9.956-41.244 14.222-1.422 0-2.844 1.422-4.267 1.422 0 1.422 0 1.422 0 2.844 0 2.844 1.422 4.267 1.422 7.111 1.422 7.111 2.844 14.222 4.267 21.333 0 2.844 1.422 5.689 1.422 9.956 1.422 7.111 1.422 14.222 1.422 19.911 0 2.844 0 5.689 0 8.533 0 9.956 1.422 19.911 1.422 28.444 0 9.956 0 19.911-1.422 28.444 0 2.844 0 5.689 0 8.533 0 7.111-1.422 14.222-1.422 19.911 0 2.844-1.422 5.689-1.422 9.956-1.422 7.111-2.844 14.222-4.267 21.333 0 2.844-1.422 4.267-1.422 7.111 0 1.422 0 1.422 0 2.844 1.422 0 2.844 1.422 4.267 1.422 14.222 4.267 27.022 8.533 39.822 14.222 0 0 0 0 1.422 0 14.222 5.689 27.022 9.956 39.822 17.067 1.422 0 2.844 1.422 4.267 1.422 18.489-41.244 27.022-86.756 27.022-132.267s-9.956-91.022-27.022-132.267c-1.422 0-2.844 1.422-4.267 1.422-12.8 7.111-25.6 11.378-39.822 17.067zM653.512 274.489c-2.844-7.111-5.689-12.8-8.533-19.911-1.422-4.267-4.267-7.111-5.689-11.378-2.844-5.689-5.689-12.8-9.956-18.489-1.422-4.267-4.267-7.111-5.689-11.378-2.844-5.689-7.111-11.378-11.378-17.067-2.844-2.844-4.267-7.111-7.111-9.956-4.267-5.689-8.533-11.378-12.8-17.067-2.844-2.844-4.267-5.689-7.111-8.533-5.689-7.111-12.8-14.222-18.489-21.333-1.422-1.422-1.422-2.844-2.844-2.844-7.111-8.533-15.644-15.644-24.178-22.756-2.844-2.844-5.689-4.267-7.111-7.111-4.267-4.267-9.956-8.533-14.222-11.378-2.844 0-7.111 0-9.956 0-5.689 4.267-9.956 8.533-14.222 11.378-2.844 1.422-5.689 4.267-7.111 5.689-8.533 7.111-15.644 15.644-24.178 22.756-1.422 1.422-1.422 1.422-2.844 2.844-7.111 7.111-12.8 14.222-19.911 21.333-2.844 2.844-4.267 5.689-7.111 8.533-4.267 5.689-8.533 11.378-12.8 17.067-2.844 2.844-4.267 7.111-7.111 9.956-4.267 5.689-7.111 11.378-11.378 17.067-2.844 4.267-4.267 7.111-7.111 11.378-2.844 5.689-5.689 11.378-9.956 18.489-1.422 4.267-4.267 7.111-5.689 11.378-2.844 7.111-5.689 12.8-8.533 19.911-1.422 4.267-2.844 7.111-4.267 11.378 0 1.422 0 1.422-1.422 2.844 2.844 0 5.689 1.422 8.533 1.422 4.267 1.422 8.533 1.422 14.222 2.844 8.533 1.422 18.489 2.844 27.022 4.267 4.267 0 8.533 1.422 12.8 1.422 9.956 1.422 19.911 1.422 31.289 2.844 2.844 0 7.111 0 9.956 1.422 27.022 1.422 55.467 1.422 82.489 0 2.844 0 5.689 0 9.956-1.422 9.956-1.422 21.333-1.422 31.289-2.844 4.267 0 8.533-1.422 12.8-1.422 9.956-1.422 18.489-2.844 28.444-4.267 4.267-1.422 8.533-1.422 12.8-2.844 2.844 0 5.689-1.422 8.533-1.422 0-1.422 0-1.422-1.422-2.844 2.844-2.844 1.422-5.689 0-9.956zM253.867 314.311c-1.422 0-1.422 0 0 0-14.222-5.689-28.444-11.378-42.667-17.067-1.422 0-2.844-1.422-4.267-1.422-18.489 41.244-27.022 86.756-27.022 132.267s9.956 91.022 27.022 132.267c1.422 0 2.844-1.422 4.267-1.422 14.222-5.689 27.022-11.378 41.244-17.067 0 0 0 0 1.422 0 14.222-5.689 28.444-9.956 41.244-14.222 1.422 0 2.844-1.422 4.267-1.422 0-1.422 0-1.422 0-2.844 0-2.844-1.422-4.267-1.422-7.111-1.422-7.111-2.844-14.222-4.267-21.333 0-2.844-1.422-5.689-1.422-9.956-1.422-7.111-1.422-12.8-1.422-19.911 0-2.844 0-5.689 0-8.533 0-9.956-1.422-18.489-1.422-28.444s0-18.489 1.422-28.444c0-2.844 0-5.689 0-8.533 0-7.111 1.422-12.8 1.422-19.911 0-2.844 1.422-7.111 1.422-9.956 1.422-7.111 2.844-14.222 2.844-21.333 0-2.844 1.422-4.267 1.422-7.111 0-1.422 0-1.422 0-2.844-1.422 0-2.844-1.422-4.267-1.422-12.8-5.689-27.022-9.956-39.822-14.222zM373.334 578.845c2.844 7.111 5.689 12.8 8.533 19.911 1.422 4.267 4.267 7.111 5.689 11.378 2.844 5.689 5.689 11.378 9.956 18.489 1.422 4.267 4.267 7.111 7.111 11.378 2.844 5.689 7.111 11.378 11.378 17.067 2.844 2.844 4.267 7.111 7.111 9.956 4.267 5.689 8.533 11.378 12.8 17.067 2.844 2.844 4.267 5.689 7.111 8.533 5.689 7.111 12.8 14.222 19.911 21.333 1.422 1.422 1.422 1.422 2.844 2.844 7.111 8.533 15.644 15.644 24.178 22.756 2.844 2.844 5.689 4.267 7.111 5.689 4.267 4.267 9.956 8.533 14.222 11.378 2.844 0 7.111 0 9.956 0 4.267-4.267 9.956-7.111 14.222-11.378 2.844-2.844 5.689-4.267 7.111-7.111 8.533-7.111 15.644-14.222 24.178-22.756 1.422-1.422 1.422-1.422 2.844-2.844 7.111-7.111 12.8-14.222 18.489-21.333 2.844-2.844 4.267-5.689 7.111-8.533 4.267-5.689 8.533-11.378 12.8-17.067 2.844-2.844 4.267-7.111 7.111-9.956 4.267-5.689 7.111-11.378 11.378-17.067 2.844-4.267 4.267-7.111 5.689-11.378 2.844-5.689 7.111-12.8 9.956-18.489 1.422-4.267 4.267-7.111 5.689-11.378 2.844-7.111 5.689-12.8 8.533-19.911 1.422-2.844 2.844-7.111 4.267-9.956 0-1.422 0-1.422 1.422-2.844-2.844 0-5.689-1.422-8.533-1.422-4.267-1.422-8.533-1.422-12.8-2.844-9.956-1.422-18.489-2.844-28.444-4.267-4.267 0-8.533-1.422-12.8-1.422-9.956-1.422-21.333-2.844-32.711-2.844-2.844 0-5.689 0-8.533 0-28.444-1.422-55.467-1.422-83.911 0-2.844 0-5.689 0-9.956 0-9.956 1.422-21.333 1.422-31.289 2.844-4.267 0-8.533 1.422-12.8 1.422-9.956 1.422-18.489 2.844-28.444 4.267-4.267 1.422-8.533 1.422-14.222 2.844-2.844 0-5.689 1.422-8.533 1.422 0 1.422 0 1.422 1.422 2.844 0 4.267 1.422 8.533 2.844 11.378zM646.401 347.023c-9.956 1.422-19.911 2.844-31.289 4.267-4.267 0-8.533 1.422-12.8 1.422-12.8 1.422-24.178 2.844-36.978 2.844-2.844 0-4.267 0-7.111 0-15.644 1.422-31.289 1.422-46.933 1.422s-29.867 0-45.511-1.422c-1.422 0-2.844 0-2.844 0-12.8-1.422-27.022-1.422-39.822-4.267-4.267 0-8.533-1.422-11.378-1.422-9.956-1.422-21.333-2.844-31.289-4.267-5.689-1.422-9.956-1.422-15.644-2.844-4.267-1.422-7.111-1.422-11.378-1.422 0 0 0 0 0 0 0 1.422 0 2.844 0 2.844-1.422 7.111-2.844 14.222-4.267 21.333 0 2.844 0 5.689-1.422 8.533-1.422 5.689-1.422 12.8-1.422 18.489 0 2.844 0 5.689 0 7.111 0 8.533-1.422 17.067-1.422 25.6s0 17.067 1.422 25.6c0 2.844 0 5.689 0 7.111 0 5.689 1.422 12.8 1.422 18.489 0 2.844 0 5.689 1.422 7.111 1.422 7.111 2.844 14.222 4.267 21.333 0 1.422 0 1.422 0 2.844 0 0 0 0 0 0 2.844-1.422 7.111-1.422 9.956-1.422 5.689-1.422 11.378-2.844 17.067-2.844 8.533-1.422 17.067-2.844 25.6-4.267 5.689-1.422 12.8-1.422 18.489-2.844 8.533-1.422 17.067-1.422 24.178-2.844 7.111 0 12.8-1.422 19.911-1.422 8.533 0 17.067 0 25.6-1.422 5.689 0 11.378 0 17.067 0 2.844 0 5.689 0 7.111 0 12.8 0 24.178 0 35.556 1.422 5.689 0 12.8 1.422 18.489 1.422 8.533 1.422 17.067 1.422 27.022 2.844 5.689 1.422 11.378 1.422 18.489 2.844 8.533 1.422 18.489 2.844 27.022 4.267 5.689 1.422 11.378 1.422 17.067 2.844 4.267 1.422 7.111 1.422 11.378 1.422 0 0 0 0 0-1.422s0-1.422 0-2.844c1.422-7.111 2.844-14.222 4.267-21.333 0-2.844 0-5.689 1.422-8.533 1.422-5.689 1.422-12.8 1.422-18.489 0-2.844 0-5.689 0-7.111 0-8.533 1.422-17.067 1.422-25.6s0-17.067-1.422-25.6c0-2.844 0-5.689 0-7.111 0-5.689-1.422-12.8-1.422-18.489 0-2.844 0-5.689-1.422-8.533-1.422-7.111-2.844-14.222-4.267-21.333 0-1.422 0-1.422 0-2.844 0 0 0 0 0-1.422-4.267 1.422-7.111 1.422-11.378 2.844-5.689 5.689-9.956 5.689-15.644 7.111zM790.045 608.711c0 0-1.422 0-1.422-1.422-11.378-5.689-24.178-9.956-35.556-14.222-1.422-1.422-4.267-1.422-5.689-1.422-9.956-4.267-19.911-7.111-31.289-9.956-1.422 0-2.844 0-4.267-1.422-1.422 2.844-1.422 5.689-2.844 7.111-1.422 2.844-1.422 4.267-2.844 7.111-4.267 11.378-8.533 21.333-12.8 31.289 0 1.422-1.422 2.844-1.422 4.267-4.267 9.956-9.956 19.911-15.644 29.867-1.422 1.422-1.422 2.844-2.844 4.267-5.689 9.956-11.378 19.911-18.489 29.867-1.422 1.422-2.844 4.267-4.267 5.689-7.111 9.956-12.8 18.489-21.333 27.022-1.422 1.422-1.422 2.844-2.844 2.844-2.844 4.267-7.111 8.533-11.378 12.8 72.533-24.178 133.689-71.111 174.933-133.689zM410.312 743.823c0 0 0-1.422 0 0-5.689-5.689-9.956-11.378-15.644-17.067-1.422-1.422-1.422-2.844-2.844-4.267-2.844-4.267-7.111-8.533-9.956-14.222-1.422-1.422-2.844-4.267-4.267-5.689-2.844-4.267-5.689-8.533-8.533-12.8-1.422-2.844-2.844-4.267-4.267-7.111-2.844-4.267-5.689-8.533-8.533-12.8-1.422-1.422-2.844-4.267-4.267-5.689-2.844-5.689-5.689-11.378-8.533-17.067 0-1.422-1.422-1.422-1.422-2.844-2.844-7.111-7.111-12.8-9.956-19.911-1.422-1.422-1.422-4.267-2.844-5.689-2.844-4.267-4.267-9.956-5.689-14.222-1.422-2.844-1.422-4.267-2.844-7.111-1.422-4.267-2.844-8.533-5.689-14.222 0-1.422-1.422-2.844-1.422-4.267-1.422 0-2.844 1.422-4.267 1.422-11.378 2.844-21.333 7.111-32.711 11.378-1.422 0-4.267 1.422-5.689 1.422-12.8 4.267-24.178 9.956-36.978 14.222-1.422 0-1.422 1.422-2.844 1.422 44.089 64 106.667 112.356 179.2 135.111zM232.534 246.045c1.422 0 1.422 1.422 2.844 1.422 12.8 5.689 24.178 9.956 36.978 14.222 1.422 1.422 4.267 1.422 5.689 1.422 9.956 4.267 21.333 7.111 31.289 9.956 1.422 0 2.844 1.422 4.267 1.422 0-1.422 1.422-2.844 1.422-4.267 1.422-4.267 2.844-8.533 5.689-14.222 1.422-2.844 1.422-4.267 2.844-7.111 1.422-4.267 4.267-9.956 5.689-14.222 1.422-1.422 1.422-4.267 2.844-5.689 2.844-7.111 5.689-12.8 9.956-19.911 0-1.422 1.422-1.422 1.422-2.844 2.844-5.689 5.689-11.378 9.956-17.067 1.422-1.422 2.844-4.267 4.267-5.689 2.844-4.267 5.689-8.533 8.533-12.8 1.422-2.844 2.844-4.267 4.267-7.111 2.844-4.267 5.689-8.533 8.533-12.8 1.422-1.422 2.844-4.267 4.267-5.689 2.844-4.267 7.111-8.533 9.956-14.222 1.422-1.422 1.422-2.844 2.844-4.267 4.267-5.689 9.956-11.378 14.222-17.067 0 0 0 0 0-1.422-72.533 25.6-136.533 73.956-177.778 137.956zM617.956 112.356c4.267 4.267 7.111 8.533 11.378 12.8 1.422 1.422 1.422 2.844 2.844 2.844 7.111 8.533 14.222 18.489 21.333 27.022 1.422 1.422 2.844 4.267 4.267 5.689 7.111 9.956 12.8 19.911 18.489 29.867 1.422 1.422 1.422 2.844 2.844 4.267 5.689 9.956 9.956 19.911 15.644 29.867 0 1.422 1.422 2.844 1.422 4.267 4.267 9.956 8.533 21.333 12.8 31.289 1.422 2.844 1.422 4.267 2.844 7.111s1.422 5.689 2.844 7.111c1.422 0 2.844 0 2.844-1.422 9.956-2.844 21.333-7.111 31.289-9.956 1.422 0 4.267-1.422 5.689-1.422 12.8-4.267 24.178-9.956 35.556-14.222 0 0 1.422 0 1.422-1.422-42.667-62.578-103.822-109.511-173.511-133.689z" />
<glyph unicode="&#xe63a;" glyph-name="Online-2" d="M326.399 270.223c34.133-103.822 99.556-193.422 184.889-257.422 85.333 64 150.756 153.6 184.889 257.422-59.733 14.222-120.889 22.756-184.889 22.756-64-1.422-125.156-8.533-184.889-22.756zM243.91 429.512c0 41.244 4.267 81.067 12.8 119.467-49.778 17.067-98.133 36.978-143.644 61.156-25.6-55.467-39.822-118.044-39.822-183.467 0-64 14.222-125.156 38.4-179.2 45.511 25.6 95.289 45.511 146.489 62.578-9.956 38.4-14.222 78.222-14.222 119.467zM721.777 429.512c0 35.556-4.267 71.111-11.378 105.244-64-15.644-130.844-24.178-199.111-24.178s-135.111 8.533-199.111 24.178c-7.111-34.133-11.378-68.267-11.378-105.244 0-35.556 4.267-71.111 11.378-105.244 64 15.644 130.844 24.178 199.111 24.178s135.111-8.533 199.111-24.178c7.111 34.133 11.378 69.689 11.378 105.244zM750.221 604.445c45.511 14.222 89.6 34.133 132.267 55.467-65.422 103.822-172.089 177.778-297.244 199.111 75.378-68.267 133.689-155.022 164.978-254.578zM778.666 429.512c0-41.244-4.267-81.067-12.8-119.467 51.2-15.644 99.556-36.978 146.489-62.578 24.178 55.467 38.4 115.2 38.4 179.2 0 65.422-14.222 128-39.822 183.467-45.511-24.178-93.867-45.511-143.644-61.156 5.689-38.4 11.378-78.222 11.378-119.467zM883.91 197.69c-42.667 22.756-86.756 42.667-133.689 56.889-32.711-102.4-93.867-192-172.089-260.267 129.422 19.911 240.356 95.289 305.778 203.378zM437.332 859.023c-125.156-21.333-231.822-95.289-297.244-199.111 41.244-22.756 85.333-41.244 132.267-55.467 31.289 99.556 89.6 186.311 164.978 254.578zM270.932 254.579c-46.933-15.644-91.022-34.133-133.689-56.889 65.422-106.667 176.356-183.467 305.778-203.378-78.222 68.267-139.378 157.867-172.089 260.267zM511.288 567.468c64 0 125.156 7.111 184.889 22.756-34.133 103.822-99.556 193.422-184.889 257.422-85.333-64-150.756-153.6-184.889-257.422 59.733-15.644 120.889-22.756 184.889-22.756z" />
<glyph unicode="&#xe63b;" glyph-name="Document-Info" d="M839.111 514.135v72.533l-264.533 264.533h-389.689v-849.067h654.222v453.689h-72.533v-381.156h-509.156v704h246.044v-263.111h335.644zM576 745.957l159.289-159.289h-159.289v159.289zM331.378 306.491h24.178v-27.022h-24.178v27.022zM648.533 279.469h-52.622v27.022h52.622v-27.022zM574.578 279.469h-52.622v27.022h52.622v-27.022zM502.044 279.469h-52.622v27.022h52.622v-27.022zM428.089 279.469h-52.622v27.022h52.622v-27.022zM668.444 306.491h24.178v-27.022h-24.178v27.022zM331.378 423.113h24.178v-27.022h-24.178v27.022zM648.533 396.091h-52.622v27.022h52.622v-27.022zM574.578 396.091h-52.622v27.022h52.622v-27.022zM502.044 396.091h-52.622v27.022h52.622v-27.022zM428.089 396.091h-52.622v27.022h52.622v-27.022zM668.444 423.113h24.178v-27.022h-24.178v27.022z" />
<glyph unicode="&#xe63c;" glyph-name="Email" d="M861.867 208.356l-236.089 180.622 312.889 315.733v55.467h-853.333v-667.022h853.333v398.222h-76.8v-283.022zM571.733 354.845v0zM807.822 683.378l-281.6-284.444c-8.533-8.533-22.756-8.533-31.289-1.422l-281.6 284.444h594.489zM442.311 343.467c18.489-18.489 44.089-28.444 69.689-28.444 19.911 0 41.244 5.689 58.311 18.489l217.6-164.978h-550.4l186.311 143.644-54.044 54.044-207.644-157.867v419.556l280.178-284.444z" />
<glyph unicode="&#xe63d;" glyph-name="Fax" d="M608.711 517.689h48.356v-22.756h-48.356v22.756zM460.8 517.689h112.356v-22.756h-112.356v22.756zM608.711 621.511h48.356v-22.756h-48.356v22.756zM460.8 621.511h112.356v-22.756h-112.356v22.756zM608.711 413.867h48.356v-22.756h-48.356v22.756zM460.8 413.867h112.356v-22.756h-112.356v22.756zM938.667 251.734v159.289h-133.689v210.489c0 95.289-69.689 173.511-153.6 173.511h-412.444c-85.333 0-153.6-78.222-153.6-173.511v-35.556h132.267v71.111h-56.889c11.378 38.4 41.244 66.844 76.8 66.844 45.511 0 82.489-45.511 82.489-102.4l-1.422-210.489h-128v-366.933h748.089v71.111h-676.978v224.711h56.889v-88.178h486.4v88.178h62.578v-88.178h71.111zM733.867 322.845h-342.756l1.422 298.667c0 38.4-11.378 73.956-29.867 102.4h288.711c45.511 0 82.489-45.511 82.489-102.4v-298.667z" />
<glyph unicode="&#xe63e;" glyph-name="Features" d="M642.134 290.844v-78.222h297.244v608.711h-854.756v-608.711h388.267v-100.978h-122.311v-79.644h324.267v79.644h-123.733v179.2h-388.267v452.267h698.311v-129.422l-182.044-163.556-82.489 93.867-58.311-51.2 135.111-152.178 187.733 167.822v-217.6zM334.934 450.133l-83.911 93.867-58.311-51.2 136.533-152.178 258.844 230.4-51.2 62.578z" />
<glyph unicode="&#xe63f;" glyph-name="Management-Tool" d="M807.822-24.177l149.333 149.333-71.111 71.111c100.978 167.822 79.644 389.689-65.422 534.756-170.667 170.667-448 170.667-618.667 0s-170.667-448 0-618.667c83.911-83.911 196.267-128 310.044-128 49.778 0 100.978 8.533 149.333 27.022l-27.022 73.956c-130.844-46.933-278.756-14.222-376.889 83.911-139.378 139.378-139.378 366.933 0 506.311s366.933 139.378 506.311 0c113.778-113.778 135.111-284.444 64-419.556l-106.667 106.667-5.689-5.689 28.444 135.111-207.644 204.8-73.956-73.956 166.4-166.4-27.022-125.156-125.156-27.022-166.4 166.4-73.956-73.956 207.644-207.644 135.111 28.444-5.689-5.689 234.667-236.089z" />
<glyph unicode="&#xe640;" glyph-name="Map-Pin" d="M782.223 532.619c0-58.311-27.022-129.422-79.644-213.333v0c-62.578-99.556-147.911-190.578-190.578-233.244-28.444 28.444-76.8 79.644-123.733 139.378-95.289 120.889-146.489 227.556-146.489 307.2 0 146.489 120.889 265.956 270.222 265.956 68.267 0 132.267-25.6 182.044-69.689l55.467 61.156c-64 58.311-149.333 91.022-237.511 91.022-194.844 0-352.711-156.444-352.711-348.444 0-233.244 311.467-521.956 324.267-534.756l28.444-25.6 28.444 25.6c5.689 5.689 137.956 128 231.822 277.333 61.156 96.711 92.444 183.467 92.444 257.422h-82.489zM337.068 534.042c0-96.711 78.222-174.933 174.933-174.933s174.933 78.222 174.933 174.933c0 96.711-78.222 176.356-174.933 176.356s-174.933-79.644-174.933-176.356zM608.712 534.042c0-54.044-42.667-96.711-96.711-96.711s-96.711 42.667-96.711 96.711c0 54.044 42.667 96.711 96.711 96.711s96.711-42.667 96.711-96.711z" />
<glyph unicode="&#xe641;" glyph-name="Minus" d="M170.666 477.868h682.667v-102.4h-682.667v102.4z" />
<glyph unicode="&#xe642;" glyph-name="Password-Management" d="M810.666-2.844h-597.333v526.222h317.156v-72.533h-238.933v-381.156h440.889v381.156h-102.4v72.533h180.622zM768 467.912h-78.222v152.178c0 44.089-18.489 85.333-51.2 116.622-34.133 31.289-78.222 48.356-126.578 48.356-98.133 0-177.778-73.956-177.778-164.978v-152.178h-78.222v152.178c0 130.844 115.2 236.089 256 236.089 68.267 0 133.689-24.178 182.044-69.689 48.356-44.089 73.956-103.822 73.956-166.4v-152.178zM492.089 369.778h38.4v-220.444h-38.4v220.444zM398.222 220.445l19.911-31.289 206.222 110.933-18.489 29.867zM624.355 220.445l-18.489-31.289-207.644 110.933 19.911 29.867z" />
<glyph unicode="&#xe643;" glyph-name="Phone" d="M546.133 738.136h230.4l-7.111-768h-514.844l-7.111 768h103.822v105.244c0 21.333 17.067 39.822 39.822 39.822s39.822-17.067 39.822-39.822v-183.467h-102.4l5.689-611.556h359.822l5.689 611.556h-153.6v78.222zM581.688 355.559h65.422v-65.422h-65.422v65.422zM483.555 355.559h65.422v-65.422h-65.422v65.422zM383.999 355.559h65.422v-65.422h-65.422v65.422zM581.688 250.314h65.422v-65.422h-65.422v65.422zM483.555 250.314h65.422v-65.422h-65.422v65.422zM383.999 250.314h65.422v-65.422h-65.422v65.422zM581.688 143.648h65.422v-65.422h-65.422v65.422zM483.555 143.648h65.422v-65.422h-65.422v65.422zM383.999 143.648h65.422v-65.422h-65.422v65.422zM383.999 593.070h264.533v-172.089h-264.533v172.089z" />
<glyph unicode="&#xe644;" glyph-name="Plus" d="M853.333 477.868h-290.133v290.133h-102.4v-290.133h-290.133v-102.4h290.133v-290.133h102.4v290.133h290.133z" />
<glyph unicode="&#xe645;" glyph-name="Remote-Connections" d="M270.933 416.711h-209.067v405.333h554.667v-140.8h-82.489v58.311h-389.689v-241.778h126.578zM448.711 223.289h-219.022v405.333h554.667v-139.378h-82.489v58.311h-389.689v-241.778h136.533zM962.133 31.289h-554.667v405.333h553.244v-405.333zM489.956 113.777h391.111v241.778h-391.111v-241.778zM664.889 750.933h25.6v-19.911h-25.6v19.911zM834.133 731.022h-51.2v19.911h51.2v-19.911zM763.022 731.022h-51.2v19.911h51.2v-19.911zM891.022 715.377h-19.911v15.644h-15.644v19.911h35.556zM891.022 530.489h-19.911v44.089h19.911v-44.089zM891.022 591.644h-19.911v44.089h19.911v-44.089zM891.022 652.8h-19.911v44.089h19.911v-44.089zM871.111 512h19.911v-25.6h-19.911v25.6zM160 327.111h25.6v-19.911h-25.6v19.911zM120.178 291.555h-21.333v35.556h36.978v-19.911h-15.644zM120.178 170.666h-21.333v42.667h19.911v-42.667zM120.178 231.822h-21.333v42.667h19.911v-42.667zM135.822 118.044h-36.978v35.556h21.333v-15.644h15.644zM323.556 118.044h-45.511v19.911h45.511v-19.911zM260.978 118.044h-45.511v19.911h45.511v-19.911zM198.4 118.044h-45.511v19.911h45.511v-19.911zM342.044 137.955h25.6v-19.911h-25.6v19.911z" />
<glyph unicode="&#xe646;" glyph-name="Security" d="M797.867 593.778h-96.711l-204.8-210.489-82.489 92.444-58.311-52.622 139.378-155.022 238.933 247.467h143.644v310.044l-58.311-44.089c-2.844 0-11.378-1.422-24.178 1.422-31.289 4.267-91.022 19.911-197.689 72.533l-8.533 4.267h-164.978l-8.533-4.267c-145.067-75.378-199.111-75.378-210.489-73.956l-58.311 44.089v-274.489c2.844-73.956 32.711-445.156 351.289-553.244l12.8-4.267 12.8 4.267c206.222 71.111 291.556 253.156 328.533 392.533l-76.8 19.911c-29.867-118.044-100.978-271.644-264.533-334.222-281.6 106.667-284.444 470.756-284.444 486.4v140.8c22.756 1.422 51.2 8.533 86.756 19.911v-78.222h78.222v110.933c15.644 7.111 32.711 15.644 51.2 25.6h25.6v-136.533h78.222v136.533h22.756c19.911-9.956 38.4-18.489 55.467-25.6v-110.933h78.222v79.644c39.822-14.222 71.111-19.911 95.289-21.333v-109.511z" />
<glyph unicode="&#xe647;" glyph-name="Manager" d="M844.8 341.334c-8.533-32.711-21.333-64-38.4-91.022l55.467-76.8-98.133-98.133-76.8 55.467c-28.444-17.067-58.311-29.867-91.022-38.4l-12.8-92.444h-137.956l-14.222 93.867c-32.711 8.533-64 21.333-91.022 38.4l-76.8-55.467-98.133 98.133 55.467 76.8c-17.067 28.444-29.867 58.311-38.4 91.022l-93.867 14.222v137.956l93.867 14.222c8.533 32.711 21.333 64 38.4 91.022l-55.467 76.8 98.133 98.133 76.8-55.467c28.444 17.067 58.311 29.867 91.022 38.4l14.222 93.867h137.956l14.222-93.867c32.711-8.533 64-21.333 91.022-38.4l76.8 55.467 98.133-98.133-55.467-76.8c17.067-28.444 29.867-58.311 38.4-91.022l93.867-14.222v-139.378l-95.289-14.222zM514.844 668.445c-135.111 0-244.622-109.511-244.622-244.622s109.511-243.2 243.2-243.2 243.2 109.511 243.2 243.2-108.089 244.622-241.778 244.622zM577.422 396.8h-129.422v174.933l-78.222-78.222v-118.044l72.533-72.533v-78.222c21.333-7.111 44.089-11.378 68.267-11.378s48.356 4.267 69.689 11.378v78.222l72.533 72.533v118.044l-76.8 76.8v-173.511z" />
<glyph unicode="&#xe648;" glyph-name="Android" d="M180.623 588.089c-31.289 0-56.889-25.6-56.889-56.889v-237.511c0-31.289 25.6-56.889 56.889-56.889s56.889 25.6 56.889 56.889v237.511c0 31.289-25.6 56.889-56.889 56.889zM637.156 800l39.822 72.533c1.422 4.267 1.422 8.533-2.844 11.378-4.267 1.422-8.533 0-9.956-2.844l-39.822-72.533c-34.133 14.222-71.111 22.756-110.933 22.756s-76.8-8.533-110.933-22.756l-39.822 72.533c-2.844 2.844-7.111 4.267-11.378 2.844s-5.689-7.111-2.844-9.956l39.822-72.533c-78.222-39.822-129.422-116.622-129.422-203.378h509.156c-1.422 86.756-52.622 162.133-130.844 201.956zM396.8 689.067c-11.378 0-21.333 9.956-21.333 21.333s9.956 21.333 21.333 21.333c11.378 0 21.333-9.956 21.333-21.333s-9.956-21.333-21.333-21.333zM628.623 689.067c-11.378 0-21.333 9.956-21.333 21.333s9.956 21.333 21.333 21.333c11.378 0 21.333-9.956 21.333-21.333s-9.956-21.333-21.333-21.333zM260.267 576.711v-366.933c0-32.711 27.022-59.733 59.733-59.733h41.244v-125.156c0-31.289 25.6-56.889 56.889-56.889s56.889 25.6 56.889 56.889v125.156h76.8v-125.156c0-31.289 25.6-56.889 56.889-56.889s56.889 25.6 56.889 56.889v125.156h41.244c32.711 0 59.733 27.022 59.733 59.733v366.933h-506.311zM900.267 531.2c0 31.289-25.6 56.889-56.889 56.889s-56.889-25.6-56.889-56.889v-237.511c0-31.289 25.6-56.889 56.889-56.889s56.889 25.6 56.889 56.889v237.511z" />
<glyph unicode="&#xe649;" glyph-name="User-Check" d="M787.911 391.113v38.4h-105.244l-189.156-170.667-78.222 88.178-55.467-49.778 128-143.644 224.711 203.378h2.844v-176.356h-116.622v-120.889h-183.467v120.889h-116.622v294.4h118.044v72.533h-1.422l1.422 1.422c-31.289 25.6-48.356 65.422-48.356 106.667 0 76.8 62.578 140.8 140.8 140.8s140.8-62.578 140.8-140.8c0-45.511-21.333-88.178-58.311-113.778l-93.867-66.844h292.978v72.533h-96.711c18.489 32.711 29.867 68.267 29.867 106.667 0 116.622-96.711 213.333-213.333 213.333s-213.333-95.289-213.333-213.333c0-38.4 9.956-73.956 29.867-106.667h-96.711v-440.889h116.622v-120.889h329.956v120.889h116.622l-5.689 284.444z" />
<glyph unicode="&#xe64a;" glyph-name="Overview" d="M777.956 285.866h-531.911v81.067h450.844v411.022h-369.778v-321.422h-81.067v402.489h531.911zM353.845 332.249l48.080-12.892-85.827-320.078-48.080 12.892 85.827 320.078zM679.94 332.077l85.86-320.045-48.075-12.897-85.86 320.045 48.075 12.897zM486.401 332.799h49.778v-338.489h-49.778v338.489z" />
<glyph unicode="&#xe64b;" glyph-name="Spotlight-On" d="M797.866 605.155l-69.689-415.289c-61.156 39.822-173.511 58.311-278.756 58.311-58.311 0-116.622-5.689-169.244-17.067l502.044 573.156 48.356-9.956-12.8-75.378 29.867-5.689 31.289-5.689 22.756 133.689-142.222 28.444-615.822-702.578c0 0 0-1.422-1.422-1.422-12.8-14.222-19.911-31.289-19.911-49.778 0-91.022 169.244-132.267 327.111-132.267 153.6 0 317.156 39.822 327.111 125.156l82.489 486.4-31.289 5.689-29.867 4.267zM449.421 56.177c-159.289 0-243.2 41.244-253.156 58.311 9.956 17.067 93.867 58.311 253.156 58.311s243.2-41.244 253.156-58.311c-9.956-17.067-93.867-58.311-253.156-58.311z" />
<glyph unicode="&#xe64c;" glyph-name="Small-Check" d="M977.778 721.067l-537.6-711.111-393.956 297.244 113.778 150.756 241.778-183.467 425.244 568.889z" />
<glyph unicode="&#xe64d;" glyph-name="Calendar" d="M219.733 493.516h150.756v-102.4h-150.756v102.4zM433.067 493.516h150.756v-102.4h-150.756v102.4zM644.978 493.516h150.756v-102.4h-150.756v102.4zM219.733 328.539h150.756v-102.4h-150.756v102.4zM433.067 328.539h150.756v-102.4h-150.756v102.4zM644.978 328.539h150.756v-102.4h-150.756v102.4zM758.756 725.339h-44.089v69.689h-75.378v-219.022h75.378v73.956h162.133v-517.689h-729.6v517.689h162.133v-73.956h75.378v73.956h170.667v75.378h-170.667v69.689h-75.378v-69.689h-237.511v-667.022h880.356v667.022z" />
<glyph unicode="&#xe64e;" glyph-name="Clock" d="M512.711-20.622c-28.444 0-54.044 2.844-81.067 8.533l12.8 79.644c22.756-4.267 45.511-7.111 68.267-7.111 201.956 0 365.511 163.556 365.511 365.511s-163.556 365.511-365.511 365.511-365.511-162.133-365.511-364.089c0-142.222 83.911-271.644 211.911-332.8l-34.133-73.956c-157.867 73.956-260.267 233.244-260.267 406.756 0 246.044 201.956 446.578 448 446.578s446.578-200.533 446.578-446.578c0-247.467-200.533-448-446.578-448zM529.778 337.778l-200.533 52.622 21.333 78.222 145.067-36.978 147.911 217.6 66.844-46.933z" />
<glyph unicode="&#xe64f;" glyph-name="Tag" d="M494.222-12.801l-284.444 284.444 54.044 54.044 230.4-230.4 368.356 366.933v211.911l-116.622 116.622h-211.911l-393.956-395.378-54.044 54.044 416.711 416.711h274.489l160.711-160.711v-274.489zM736 575.999c-24.178-24.178-64-24.178-88.178 0v0c-24.178 24.178-24.178 64 0 88.178v0c24.178 24.178 64 24.178 88.178 0v0c24.178-24.178 24.178-64 0-88.178v0z" />
<glyph unicode="&#xe650;" glyph-name="License" d="M512 7.111c-19.911 0-39.822 1.422-59.733 4.267l-38.4 5.689 11.378 75.378 38.4-5.689c91.022-12.8 180.622 9.956 254.578 65.422s120.889 135.111 133.689 226.133-9.956 180.622-65.422 254.578c-55.467 73.956-135.111 120.889-226.133 133.689s-180.622-9.956-254.578-65.422-120.889-135.111-133.689-226.133c-17.067-119.467 28.444-236.089 120.889-312.889l29.867-24.178-48.356-58.311-29.867 24.178c-113.778 93.867-169.244 237.511-147.911 382.578 15.644 110.933 73.956 209.067 163.556 275.911s200.533 95.289 311.467 79.644c110.933-15.644 209.067-73.956 275.911-163.556s95.289-200.533 79.644-311.467-73.956-209.067-163.556-275.911c-73.956-54.044-162.133-83.911-251.733-83.911zM510.578 237.511c-8.533 0-18.489 0-27.022 1.422l-17.067 2.844 4.267 34.133 17.067-2.844c83.911-12.8 163.556 46.933 174.933 132.267s-46.933 163.556-132.267 174.933c-41.244 5.689-82.489-4.267-115.2-29.867-32.711-24.178-54.044-61.156-59.733-102.4-7.111-54.044 12.8-106.667 54.044-140.8l12.8-11.378-21.333-27.022-12.8 11.378c-51.2 42.667-76.8 106.667-66.844 172.089 7.111 49.778 32.711 93.867 73.956 125.156 39.822 29.867 91.022 42.667 140.8 35.556 103.822-14.222 176.356-110.933 160.711-214.756-11.378-92.444-92.444-160.711-186.311-160.711zM510.578 304.356c-5.689 0-11.378 0-17.067 1.422l-17.067 2.844 4.267 34.133 17.067-2.844c48.356-7.111 92.444 27.022 99.556 75.378 2.844 22.756-2.844 46.933-17.067 65.422s-34.133 31.289-58.311 34.133c-48.356 7.111-92.444-27.022-99.556-75.378-4.267-29.867 7.111-61.156 31.289-79.644l12.8-11.378-21.333-27.022-12.8 11.378c-32.711 27.022-49.778 69.689-42.667 110.933 9.956 66.844 71.111 113.778 137.956 103.822 32.711-4.267 61.156-21.333 81.067-48.356s28.444-58.311 22.756-91.022c-8.533-59.733-59.733-103.822-120.889-103.822zM615.604 796.215l71.048-29.161-79.383-193.408-71.048 29.161 79.383 193.408z" />
<glyph unicode="&#xe651;" glyph-name="License-Delivery" d="M908.8 102.4l-186.311 142.222 246.044 247.467v44.089h-88.178c-45.511 159.289-180.622 277.333-345.6 301.511-110.933 15.644-221.867-12.8-311.467-79.644-88.178-68.267-146.489-166.4-162.133-277.333-21.333-145.067 34.133-288.711 147.911-382.578l29.867-24.178 48.356 58.311-29.867 24.178c-92.444 76.8-137.956 193.422-120.889 312.889 12.8 91.022 61.156 170.667 133.689 226.133 73.956 55.467 163.556 78.222 254.578 65.422 14.222-1.422 28.444-5.689 41.244-8.533l-59.733-145.067c-1.422 0-2.844 0-4.267 1.422-49.778 7.111-99.556-5.689-140.8-35.556-14.222-9.956-27.022-22.756-36.978-36.978h-27.022v-48.356c-4.267-12.8-8.533-25.6-9.956-39.822-4.267-31.289-1.422-64 9.956-92.444v-342.756h671.289v312.889h-59.733v-223.289zM645.689 253.156c-7.111-7.111-17.067-7.111-24.178 0l-220.444 223.289h465.067l-220.444-223.289zM681.244 217.6v0 0zM637.156 725.334c75.378-39.822 133.689-106.667 163.556-189.156h-173.511c-14.222 18.489-29.867 32.711-48.356 45.511l58.311 143.644zM382.578 546.134c32.711 24.178 73.956 35.556 115.2 29.867 31.289-4.267 59.733-18.489 82.489-38.4h-62.578c-8.533 2.844-17.067 5.689-25.6 7.111-19.911 2.844-41.244 0-59.733-7.111h-61.156c4.267 1.422 8.533 4.267 11.378 8.533zM418.133 72.534l146.489 112.356-42.667 42.667-163.556-125.156v329.956l220.444-223.289c15.644-14.222 34.133-21.333 54.044-21.333 15.644 0 31.289 4.267 45.511 14.222l170.667-129.422h-430.933z" />
<glyph unicode="&#xe652;" glyph-name="License-Subscription" d="M463.644 349.867l-17.067 2.844-4.267-34.133 17.067-2.844c5.689-1.422 11.378-1.422 17.067-1.422 59.733 0 112.356 44.089 120.889 105.244 4.267 32.711-4.267 64-22.756 91.022s-48.356 42.667-81.067 48.356c-66.844 9.956-129.422-36.978-137.956-103.822-5.689-42.667 9.956-83.911 42.667-110.933l12.8-11.378 21.333 27.022-12.8 11.378c-24.178 19.911-35.556 49.778-31.289 79.644 7.111 48.356 51.2 81.067 99.556 75.378 22.756-2.844 44.089-15.644 58.311-34.133s19.911-42.667 17.067-65.422c-7.111-49.778-51.2-83.911-99.556-76.8zM877.511 566.045l-12.8 29.867c-55.467 136.533-182.044 236.089-329.956 257.422-228.978 31.289-440.889-128-473.6-356.978-21.333-145.067 34.133-288.711 147.911-382.578l29.867-24.178 48.356 58.311-29.867 24.178c-92.444 76.8-137.956 193.422-120.889 312.889 12.8 91.022 61.156 170.667 133.689 226.133 73.956 55.467 163.556 78.222 254.578 65.422 14.222-1.422 28.444-4.267 41.244-8.533l-59.733-145.067c-1.422 0-2.844 0-4.267 0-49.778 7.111-99.556-5.689-140.8-35.556-39.822-29.867-66.844-75.378-73.956-125.156-9.956-65.422 15.644-130.844 66.844-172.089l14.222-9.956 21.333 27.022-12.8 11.378c-41.244 34.133-62.578 88.178-54.044 140.8 5.689 41.244 27.022 76.8 59.733 102.4 32.711 24.178 73.956 35.556 115.2 29.867s76.8-27.022 102.4-59.733c24.178-32.711 35.556-73.956 29.867-115.2s-27.022-76.8-59.733-102.4c-32.711-24.178-71.111-32.711-113.778-31.289l-95.289-95.289-28.444-190.578 189.156 28.444 446.578 446.578-91.022 93.867zM423.822 88.178l9.956 62.578 28.444 28.444 54.044-54.044-28.444-28.444-64-8.533zM539.022 150.756l-54.044 54.044 54.044 54.044c17.067 5.689 34.133 15.644 49.778 27.022 39.822 29.867 66.844 75.378 73.956 125.156s-5.689 99.556-35.556 140.8c-14.222 18.489-31.289 34.133-49.778 45.511l58.311 143.644c58.311-31.289 106.667-78.222 139.378-136.533l-72.533-72.533 54.044-54.044 51.2 51.2 54.044-54.044-322.844-324.267z" />
<glyph unicode="&#xe653;" glyph-name="FAQ-2" d="M510.578-9.244c-27.022 0-52.622 2.844-79.644 7.111l12.8 78.222c21.333-4.267 44.089-5.689 66.844-5.689 196.267 0 355.556 159.289 355.556 355.556s-159.289 355.556-355.556 355.556-355.556-159.289-355.556-355.556c0-137.956 81.067-264.533 206.222-322.844l-32.711-71.111c-153.6 71.111-251.733 226.133-251.733 395.378 0 240.356 194.844 435.2 435.2 435.2s435.2-194.844 435.2-435.2c-1.422-241.778-197.689-436.622-436.622-436.622zM460.801 194.134c0 0-1.422 0 0 0-1.422 0-1.422 1.422-1.422 1.422v73.956c0 1.422 0 1.422 0 1.422s88.178 0 88.178 0c0 0 1.422 0 1.422 0s0-1.422 0-1.422v-73.956c0-1.422 0-1.422 0-1.422s0 0-1.422 0h-86.756zM460.801 327.823c0 0-1.422 0 0 0-1.422 0-1.422 1.422-1.422 1.422v133.689c0 1.422 0 1.422 0 1.422s58.311 0 58.311 0c24.178 0 36.978 14.222 36.978 38.4v38.4c0 24.178-14.222 38.4-36.978 38.4h-25.6c-24.178 0-36.978-14.222-36.978-38.4v-15.644c0-1.422 0-1.422 0-1.422s-88.178 0-88.178 0c0 0-1.422 0-1.422 0s0 1.422 0 1.422v32.711c0 28.444 8.533 51.2 27.022 71.111s39.822 28.444 65.422 28.444h93.867c25.6 0 46.933-9.956 65.422-28.444 18.489-19.911 27.022-42.667 27.022-71.111v-72.533c0-28.444-8.533-51.2-27.022-71.111-17.067-17.067-35.556-27.022-58.311-28.444h-8.533v-58.311c0-1.422 0-1.422 0-1.422s0 0-1.422 0h-88.178z" />
<glyph unicode="&#xe654;" glyph-name="Add-On" d="M760.888 15.645h-76.8v216.178l49.778-15.644c9.956-2.844 19.911-4.267 29.867-4.267 54.044 0 98.133 44.089 98.133 98.133s-44.089 98.133-98.133 98.133c-9.956 0-19.911-1.422-29.867-4.267l-49.778-15.644v196.267h-139.378l15.644 49.778c2.844 9.956 4.267 19.911 4.267 29.867 0 54.044-44.089 98.133-98.133 98.133s-98.133-44.089-98.133-98.133c0-9.956 1.422-19.911 4.267-29.867l15.644-49.778h-228.978v-48.356c76.8-18.489 132.267-86.756 132.267-169.244s-55.467-150.756-132.267-169.244v-106.667h46.933c17.067 78.222 86.756 137.956 170.667 137.956 96.711 0 174.933-78.222 174.933-174.933v-38.4h-76.8v38.4c0 54.044-44.089 98.133-98.133 98.133s-98.133-44.089-98.133-96.711v-41.244h-194.844v253.156l36.978 1.422c52.622 1.422 95.289 44.089 95.289 98.133 0 52.622-41.244 96.711-95.289 98.133l-36.978 1.422v194.844h209.067c0 1.422 0 1.422 0 2.844 0 96.711 78.222 174.933 174.933 174.933s174.933-78.222 174.933-174.933c0-1.422 0-1.422 0-2.844h119.467v-176.356c1.422 0 1.422 0 2.844 0 96.711 0 174.933-78.222 174.933-174.933s-78.222-174.933-174.933-174.933c-1.422 0-1.422 0-2.844 0v-119.467z" />
<glyph unicode="&#xe655;" glyph-name="Application-Tools" d="M755.2 68.267c22.756 15.644 44.089 32.711 62.578 52.622 169.244 169.244 169.244 443.733 0 612.978-167.822 167.822-442.311 167.822-611.556-1.422-169.244-167.822-169.244-443.733 0-612.978 82.489-82.489 193.422-126.578 307.2-126.578 49.778 0 99.556 8.533 147.911 25.6l-27.022 73.956c-129.422-46.933-275.911-15.644-372.622 82.489-137.956 139.378-137.956 364.089 0 502.044s362.667 137.956 502.044 0c119.467-119.467 135.111-302.933 49.778-439.467l-146.489 146.489 19.911 93.867-155.022 155.022-55.467-55.467 125.156-125.156-19.911-93.867-93.867-19.911-125.156 125.156-55.467-55.467 155.022-155.022 93.867 19.911z" />
<glyph unicode="&#xe656;" glyph-name="Data-Entry" d="M782.223 369.779l116.622 116.622-116.622 115.2-265.956 264.533h-391.111v-851.911h108.089l-4.267-27.022 184.889 27.022h368.356v355.556zM678.401 603.023h-160.711v157.867l160.711-157.867zM199.112 88.179v705.422h246.044v-264.533h297.244l42.667-42.667-338.489-338.489-54.044 54.044 280.178 264.533h-113.778l-298.667-280.178-14.222-98.133h-46.933zM335.646 149.334l29.867 28.444 55.467-55.467-29.867-29.867-65.422-9.956 9.956 66.844zM500.623 88.179l209.067 209.067v-209.067h-209.067z" />
<glyph unicode="&#xe657;" glyph-name="Data-Source" d="M814.222 425.956c0-27.022-102.4-91.022-301.511-91.022s-301.511 64-301.511 91.022v128c75.378-41.244 189.156-62.578 301.511-62.578 193.422 0 389.689 61.156 389.689 177.778s-197.689 180.622-391.111 180.622-389.689-61.156-389.689-177.778c0-4.267 1.422-8.533 1.422-12.8h-1.422v-477.867c0-116.622 196.267-177.778 389.689-177.778s389.689 61.156 389.689 177.778v312.889h-86.756v-68.267zM511.288 763.022c199.111 0 301.511-64 301.511-91.022s-102.4-91.022-301.511-91.022-301.511 64-301.511 91.022 102.4 91.022 301.511 91.022zM511.288 90.311c-199.111 0-301.511 64-301.511 91.022v128c75.378-41.244 189.156-62.578 301.511-62.578s227.556 21.333 301.511 62.578v-128c1.422-27.022-102.4-91.022-301.511-91.022z" />
<glyph unicode="&#xe658;" glyph-name="Flag" d="M689.066 543.288l-129.422 108.089h-392.533v-347.022h109.511l129.422-108.089 392.533 95.289 174.933 283.022zM50.489 705.422h69.689v-557.511h-69.689v557.511z" />
<glyph unicode="&#xe659;" glyph-name="Import" d="M839.822 375.468h-257.422v96.711l-199.111-176.356 199.111-176.356v96.711h184.889v-140.8h-510.578v704h246.044v-263.111h337.067v72.533l-264.533 263.111h-391.111v-850.489h655.644v374.044zM576.711 748.091l159.289-159.289h-159.289v159.289z" />
<glyph unicode="&#xe65a;" glyph-name="Session" d="M580.267 853.334c-234.667 38.4-456.533-122.311-494.933-356.978-27.022-160.711 46.933-328.533 179.2-423.822l432.356 354.133-277.333 183.467v-310.044l-155.022-128c-81.067 79.644-120.889 194.844-102.4 310.044 31.289 192 213.333 322.844 405.333 291.556s322.844-213.333 291.556-405.333c-31.289-190.578-206.222-315.733-406.756-291.556l-8.533-78.222c18.489-2.844 36.978-2.844 55.467-2.844 216.178 0 403.911 149.333 438.044 359.822 38.4 237.511-120.889 459.378-356.978 497.778z" />
<glyph unicode="&#xe65b;" glyph-name="Session-Tools" d="M944.356 352.711c38.4 236.089-122.311 457.956-356.978 496.356-236.089 39.822-459.378-120.889-497.778-356.978-27.022-162.133 46.933-329.956 179.2-425.244l433.778 355.556-69.689 45.511-209.067 137.956v-310.044l-155.022-128c-81.067 79.644-120.889 196.267-102.4 311.467 31.289 193.422 213.333 324.267 406.756 292.978s324.267-213.333 292.978-406.756c-9.956-58.311-32.711-110.933-65.422-153.6l-103.822 102.4-41.244-41.244 86.756-86.756-14.222-64-64-14.222-86.756 86.756-41.244-41.244 109.511-109.511 69.689 14.222-1.422-1.422 95.289-95.289 78.222 78.222-71.111 73.956c65.422 62.578 112.356 145.067 128 238.933z" />
<glyph unicode="&#xe65c;" glyph-name="VPN" d="M810.667 341.334v-56.889h61.156v-228.978h-271.644v228.978h147.911v56.889h-125.156v55.467c0 54.044 49.778 98.133 109.511 98.133 35.556 0 68.267-15.644 88.178-41.244v0c0 0 0 0 0 0h72.533c0 106.667-42.667 207.644-118.044 283.022s-176.356 118.044-284.444 118.044-209.067-41.244-284.444-118.044c-75.378-75.378-118.044-176.356-118.044-284.444s41.244-209.067 118.044-284.444c76.8-76.8 177.778-118.044 283.022-118.044 17.067 0 34.133 1.422 51.2 2.844v-55.467h386.844v344.178h-116.622zM587.378 470.756h-234.667c1.422 41.244 9.956 79.644 25.6 116.622 36.978-11.378 75.378-17.067 113.778-17.067s76.8 5.689 113.778 17.067c9.956-22.756 17.067-46.933 21.333-72.533-17.067-11.378-29.867-27.022-39.822-44.089zM812.089 531.911c-24.178 11.378-51.2 18.489-79.644 18.489-27.022 0-52.622-5.689-73.956-17.067-4.267 22.756-11.378 44.089-19.911 64 38.4 15.644 73.956 38.4 106.667 65.422 31.289-35.556 54.044-81.067 66.844-130.844zM721.067 689.778c-29.867-25.6-62.578-45.511-96.711-59.733-18.489 34.133-41.244 66.844-69.689 95.289l-24.178-24.178c24.178-24.178 44.089-52.622 61.156-81.067-64-18.489-133.689-18.489-197.689 0 15.644 29.867 36.978 56.889 61.156 81.067l-24.178 24.178c-28.444-28.444-51.2-59.733-69.689-93.867-34.133 14.222-66.844 34.133-96.711 59.733 61.156 59.733 142.222 92.444 227.556 92.444s166.4-34.133 228.978-93.867zM240.356 665.6c32.711-28.444 68.267-49.778 105.244-65.422-17.067-39.822-25.6-83.911-28.444-128h-153.6c4.267 71.111 31.289 137.956 76.8 193.422zM163.556 436.623h155.022c1.422-39.822 9.956-79.644 22.756-116.622-39.822-17.067-76.8-41.244-108.089-71.111-41.244 55.467-65.422 119.467-69.689 187.733zM260.267 220.445c-1.422 1.422-2.844 2.844-4.267 4.267 29.867 27.022 64 49.778 99.556 65.422 18.489-38.4 44.089-75.378 75.378-106.667l24.178 24.178c-28.444 28.444-49.778 59.733-66.844 93.867 34.133 9.956 68.267 15.644 105.244 15.644v34.133c-41.244 0-81.067-7.111-118.044-18.489-12.8 32.711-19.911 68.267-21.333 103.822h219.022c-4.267-12.8-5.689-27.022-5.689-41.244v-54.044h-22.756v-213.333c-105.244-17.067-210.489 17.067-284.444 92.444zM792.178 213.334l-46.933-24.178v49.778h-24.178v-49.778l-48.356 24.178-11.378-18.489 46.933-25.6-46.933-25.6 11.378-18.489 48.356 25.6v-51.2h24.178v51.2l46.933-25.6 11.378 18.489-46.933 25.6 46.933 25.6z" />
</font>
</defs>
</svg>
